<?xml version="1.0" encoding="utf-8"?>
<!-- Generator: Adobe Illustrator 23.0.1, SVG Export Plug-In . SVG Version: 6.00 Build 0)  -->
<svg version="1.1" id="Layer_1" xmlns="http://www.w3.org/2000/svg" xmlns:xlink="http://www.w3.org/1999/xlink" x="0px" y="0px"
	 viewBox="0 0 1417.3 1417.3" style="enable-background:new 0 0 1417.3 1417.3;" xml:space="preserve">
<style type="text/css">
	.st0{display:none;fill:#00AAFF;}
	.st1{display:none;}
	.st2{display:inline;}
	.st3{fill:#00FFFF;}
	.st4{fill:none;}
	.st5{display:inline;fill:#00FFFF;}
	.st6{fill:#FFFFFF;}
	.st7{display:inline;opacity:0.22;fill:#E81FB4;enable-background:new    ;}
	.st8{display:inline;opacity:0.22;fill:#20C0E5;enable-background:new    ;}
	.st9{display:inline;opacity:0.22;fill:#E28223;enable-background:new    ;}
	.st10{display:inline;fill:none;stroke:#FF0000;stroke-width:2;stroke-miterlimit:10;}
	.st11{fill:#FFB600;}
	.st12{display:inline;fill:none;}
	.st13{display:inline;fill:#7C99A5;}
	.st14{font-family:'FiraCode-Light';}
	.st15{font-size:21px;}
</style>
<rect id="Hintergrund" width="1417.3" height="1417.3"/>
<line class="st0" x1="237.4" y1="79.4" x2="237.4" y2="1337.9"/>
<line class="st0" x1="331.9" y1="79.4" x2="331.9" y2="1337.9"/>
<line class="st0" x1="426.4" y1="79.4" x2="426.4" y2="1337.9"/>
<line class="st0" x1="520.9" y1="79.4" x2="520.9" y2="1337.9"/>
<line class="st0" x1="615.3" y1="79.4" x2="615.3" y2="1337.9"/>
<line class="st0" x1="709.8" y1="79.4" x2="709.8" y2="1337.9"/>
<line class="st0" x1="804.3" y1="79.4" x2="804.3" y2="1337.9"/>
<line class="st0" x1="898.8" y1="79.4" x2="898.8" y2="1337.9"/>
<line class="st0" x1="993.3" y1="79.4" x2="993.3" y2="1337.9"/>
<line class="st0" x1="1087.8" y1="79.4" x2="1087.8" y2="1337.9"/>
<line class="st0" x1="1182.3" y1="79.4" x2="1182.3" y2="1337.9"/>
<g id="Raster_1_" transform="translate(0,377.95276)" class="st1">
	<g id="g1283_1_" transform="matrix(1.4397161,0,0,1.4397161,146.62982,-227.168)" class="st2">
		<g id="g3914-4-3-3_1_" transform="translate(-204.732,-757.15664)">
			<rect id="rect3910-6-3-8_1_" x="229.8" y="820.9" class="st3" width="732.7" height="14.2"/>
		</g>
		<g id="g3914-4-3-1-9_1_" transform="translate(-204.732,-859.15664)">
			<rect id="rect3910-6-3-9-4_1_" x="229.8" y="846.4" class="st3" width="732.7" height="14.2"/>
		</g>
		<g id="g3914-4-3-3-0_1_" transform="translate(-204.732,-654.60782)">
			<rect id="rect3910-6-3-8-3_1_" x="229.8" y="795.3" class="st3" width="732.7" height="14.2"/>
		</g>
		<g id="g3914-4-3-3-0-6_1_" transform="translate(-204.732,-552.60787)">
			<rect id="rect3910-6-3-8-3-7_1_" x="229.8" y="769.8" class="st3" width="732.7" height="14.2"/>
		</g>
		<g id="g3914-4-3-3-0-6-8_1_" transform="translate(-204.732,-450.60787)">
			<rect id="rect3910-6-3-8-3-7-0_1_" x="229.8" y="744.3" class="st3" width="732.7" height="14.2"/>
		</g>
		<g id="g3914-4-3-3-0-6-8-3_1_" transform="translate(-204.732,-348.60787)">
			<rect id="rect3910-6-3-8-3-7-0-7_1_" x="229.8" y="718.8" class="st3" width="732.7" height="14.2"/>
		</g>
		<g id="g3914-4-3-3-0-6-8-3-0_1_" transform="translate(-204.732,-246.60787)">
			<rect id="rect3910-6-3-8-3-7-0-7-3_1_" x="229.8" y="693.3" class="st3" width="732.7" height="14.2"/>
		</g>
		<g id="g3914-4-3-3-0-6-8-3-0-6_1_" transform="translate(-204.732,-144.60787)">
			<rect id="rect3910-6-3-8-3-7-0-7-3-5_1_" x="229.8" y="667.8" class="st3" width="732.7" height="14.2"/>
		</g>
		<g id="g3914-4-3-3-0-6-8-3-0-6-7_1_" transform="translate(-204.732,-42.60787)">
			<rect id="rect3910-6-3-8-3-7-0-7-3-5-5_1_" x="229.8" y="642.3" class="st3" width="732.7" height="14.2"/>
		</g>
		<g id="g3914-4-3-3-0-6-8-3-0-6-7-8_1_" transform="translate(-204.732,59.392129)">
			<rect id="rect3910-6-3-8-3-7-0-7-3-5-5-2_1_" x="229.8" y="616.8" class="st3" width="732.7" height="14.2"/>
		</g>
		<g id="g3914-4-3-3-0-6-8-3-0-6-7-8-5_1_" transform="translate(-204.732,161.39213)">
			<rect id="rect3910-6-3-8-3-7-0-7-3-5-5-2-1_1_" x="229.8" y="591.3" class="st3" width="732.7" height="14.2"/>
		</g>
	</g>
	<g class="st2">
		<rect x="181.6" y="-245.5" class="st3" width="17" height="1115.4"/>
		<line class="st4" x1="190.1" y1="-245.5" x2="190.1" y2="869.9"/>
		<rect x="276.1" y="-245.5" class="st3" width="17" height="1115.4"/>
		<line class="st4" x1="284.6" y1="-245.5" x2="284.6" y2="869.9"/>
		<rect x="370.6" y="-245.5" class="st3" width="17" height="1115.4"/>
		<line class="st4" x1="379.1" y1="-245.5" x2="379.1" y2="869.9"/>
		<rect x="465.1" y="-245.5" class="st3" width="17" height="1115.4"/>
		<line class="st4" x1="473.6" y1="-245.5" x2="473.6" y2="869.9"/>
		<rect x="559.6" y="-245.5" class="st3" width="17" height="1115.4"/>
		<line class="st4" x1="568.1" y1="-245.5" x2="568.1" y2="869.9"/>
		<rect x="654.1" y="-245.5" class="st3" width="17" height="1115.4"/>
		<line class="st4" x1="662.6" y1="-245.5" x2="662.6" y2="869.9"/>
		<rect x="748.6" y="-245.5" class="st3" width="17" height="1115.4"/>
		<line class="st4" x1="757.1" y1="-245.5" x2="757.1" y2="869.9"/>
		<rect x="843.1" y="-245.5" class="st3" width="17" height="1115.4"/>
		<line class="st4" x1="851.6" y1="-245.5" x2="851.6" y2="869.9"/>
		<rect x="937.5" y="-245.5" class="st3" width="17" height="1115.4"/>
		<line class="st4" x1="946" y1="-245.5" x2="946" y2="869.9"/>
		<g id="g3914-4-3-3-0-6-8-3-0-6-7-8_2_" transform="translate(-204.732,59.392129)">
			<rect id="rect3910-6-3-8-3-7-0-7-3-5-5-2_2_" x="387.4" y="687" class="st3" width="1054.9" height="20.4"/>
		</g>
		<g id="g3914-4-3-3-0-6-8-3-0-6-7-8-5_2_" transform="translate(-204.732,161.39213)">
			<rect id="rect3910-6-3-8-3-7-0-7-3-5-5-2-1_2_" x="387.4" y="695.1" class="st3" width="1054.9" height="20.4"/>
		</g>
		<rect x="465.1" y="-245.5" class="st3" width="17" height="1115.4"/>
		<rect x="559.6" y="-245.5" class="st3" width="17" height="1115.4"/>
		<rect x="654.1" y="-245.5" class="st3" width="17" height="1115.4"/>
		<line class="st4" x1="757.1" y1="-245.5" x2="757.1" y2="869.9"/>
		<rect x="843.1" y="-245.5" class="st3" width="17" height="1115.4"/>
		<line class="st4" x1="946" y1="-245.5" x2="946" y2="869.9"/>
		<rect x="1032" y="-245.5" class="st3" width="17" height="1115.4"/>
		<line class="st4" x1="1040.5" y1="-245.5" x2="1040.5" y2="869.9"/>
		<rect x="1126.5" y="-245.5" class="st3" width="17" height="1115.4"/>
		<line class="st4" x1="1135" y1="-245.5" x2="1135" y2="869.9"/>
		<rect x="1221" y="-245.5" class="st3" width="17" height="1115.4"/>
		<line class="st4" x1="1229.5" y1="-245.5" x2="1229.5" y2="869.9"/>
	</g>
	<rect x="748.6" y="893.5" class="st5" width="17" height="115.4"/>
	<rect x="937.5" y="893.5" class="st5" width="17" height="115.4"/>
	<g id="g3914-4-3-3-0-6-8-3-0-6-7-8_3_" transform="translate(-204.732,59.392129)" class="st2">
		<rect id="rect3910-6-3-8-3-7-0-7-3-5-5-2_3_" x="669.4" y="826" class="st3" width="489.9" height="20.4"/>
	</g>
	<g id="g3914-4-3-3-0-6-8-3-0-6-7-8-5_3_" transform="translate(-204.732,161.39213)" class="st2">
		<rect id="rect3910-6-3-8-3-7-0-7-3-5-5-2-1_3_" x="669.4" y="834.1" class="st3" width="489.9" height="20.4"/>
	</g>
	<rect x="465.1" y="893.5" class="st5" width="17" height="115.4"/>
	<rect x="559.6" y="893.5" class="st5" width="17" height="115.4"/>
	<rect x="654.1" y="893.5" class="st5" width="17" height="115.4"/>
	<rect x="843.1" y="893.5" class="st5" width="17" height="115.4"/>
</g>
<g id="Uhrtext">
	<g id="g202_1_" transform="translate(220.7661,792.45322)">
		<path id="path200_1_" class="st6" d="M31.6-462.5H6.1L31.8-502v-3.9H3.9v4.1h23.4L1.5-462.3v3.8H31L31.6-462.5z"/>
	</g>
	<g id="g218_1_" transform="translate(291.7451,826.71292)">
		<path id="path216_1_" class="st6" d="M52.1-536.3l0.6-3.9H26.8v47.5h26.6v-3.9H31.2v-18.2h18v-4h-18v-17.4L52.1-536.3L52.1-536.3z
			"/>
	</g>
	<g id="g234_1_" transform="translate(343.104,809.13332)">
		<path id="path232_1_" class="st6" d="M73.3-498.4h19.9v23.3h4.4v-47.5h-4.4v20.6H73.3v-20.6H69v47.5h4.4L73.3-498.4L73.3-498.4z"
			/>
	</g>
	<g id="g250_1_" transform="translate(415.103,811.11332)">
		<path id="path248_1_" class="st6" d="M95.8-502.7c0-3.8-0.1-8-0.4-12.7l-0.1-4.5l18,42.8h6.8v-47.5h-4.4v25.4
			c0,2.8,0.1,5.5,0.2,8.2s0.2,4.4,0.2,5c0.1,2.5,0.2,3.9,0.1,4.4l-18.5-43.1h-6.4v47.5h4.4v-25.5H95.8z"/>
	</g>
	<path id="path264_1_" class="st6" d="M630.5,286.5h-27.8v4.1H626l-25.8,39.6v3.8h29.6l0.6-4.1h-25.5l25.7-39.5L630.5,286.5
		L630.5,286.5z"/>
	<g id="g282_1_" transform="translate(575.8408,793.83302)">
		<path id="path280_1_" class="st6" d="M143.3-465.5l-6-36.3h-6.6l-6.3,36.3l-6.1-41.8h-4.6l7.1,47.5h6.9l6-36.4l6,36.4h6.7
			l7.7-47.5H150L143.3-465.5z"/>
	</g>
	<g id="g298_1_" transform="translate(639.6201,826.53322)">
		<path id="path296_1_" class="st6" d="M164.6-535.9l8.6,26.6h-17.3l4.7-14.3l-5.2,3l-9.3,28h4.1l4.1-12.7h20.3l4.1,12.7h4.6
			L167.6-540h-5.8l-3.7,11.2l3.5,2L164.6-535.9z"/>
	</g>
	<g id="g314_1_" transform="translate(703.0986,811.11332)">
		<path id="path312_1_" class="st6" d="M185.8-502.7c0-3.8-0.1-8-0.4-12.7l-0.1-4.5l18,42.8h6.8v-47.5h-4.4v25.4
			c0,2.8,0.1,5.5,0.2,8.2c0.1,2.7,0.2,4.4,0.2,5c0.1,2.5,0.2,3.9,0.1,4.4l-18.5-43.1h-6.4v47.5h4.4L185.8-502.7L185.8-502.7z"/>
	</g>
	<g id="g330_1_" transform="translate(796.7559,792.45322)">
		<path id="path328_1_" class="st6" d="M211.5-462.5H186l25.7-39.5v-3.9h-27.9v4.1h23.4l-25.8,39.6v3.8H211L211.5-462.5z"/>
	</g>
	<g id="g346_1_" transform="translate(844.3945,792.15342)">
		<path id="path344_1_" class="st6" d="M230.3-461.9v3.7h26.1v-3.7h-10.8v-40h10.8v-3.7h-26.1v3.7h10.8v40H230.3z"/>
	</g>
	<g id="g362_1_" transform="translate(928.332,788.31302)">
		<path id="path360_1_" class="st6" d="M255.2-453.6c3.1,0,5.8-0.3,8.1-1s4.7-1.6,7.2-2.9V-480H255l0.6,4.1H266v15.5
			c-3.1,1.7-6.4,2.6-10,2.6c-4.5,0-7.9-1.7-10.2-5s-3.5-8.5-3.5-15.4c0-7.1,1.4-12.3,4.1-15.5c2.7-3.2,6.1-4.8,10.2-4.8
			c4.1,0,7.5,1.3,10.3,4l2.9-3c-2-1.8-3.9-3.1-5.9-3.9c-1.9-0.8-4.3-1.2-7.2-1.2c-3.4,0-6.5,0.9-9.4,2.8c-2.9,1.8-5.3,4.6-7.1,8.3
			c-1.8,3.7-2.7,8.1-2.7,13.3c0,8,1.6,14.1,4.8,18.2C245.4-455.7,249.8-453.6,255.2-453.6"/>
	</g>
	<g id="g378_1_" transform="translate(199.106,748.77302)">
		<path id="path376_1_" class="st6" d="M27-348.2h6.6c2.8,0,5.3,0.5,7.6,1.4s4.1,2.8,5.7,5.7c1.6,2.9,2.3,7.1,2.3,12.5
			c0,7.5-1.5,12.8-4.5,15.7c-3,3-6.7,4.5-11,4.5H27v-26.8l-4.4,2.5v28.1h10.3c5.9,0,10.8-1.7,14.9-5.2s6.1-9.7,6.1-18.8
			c0-9-2-15.1-6-18.5c-4-3.3-9.3-5-15.8-5h-9.5v9.7l4.4,2.5L27-348.2z"/>
	</g>
	<g id="g394_1_" transform="translate(272.4253,748.83302)">
		<path id="path392_1_" class="st6" d="M48.3-348.4h7.9c4,0,6.9,0.7,8.8,2.2c1.9,1.5,2.8,3.8,2.8,7c0,3.4-1,5.9-3,7.4
			s-4.9,2.3-8.8,2.3h-7.7v-5.6l-4.4,2.5v27.9h4.4v-21h7.4l13.8,21H75L60.3-326c3.6-0.8,6.6-2.3,8.8-4.6c2.3-2.3,3.4-5.1,3.4-8.6
			c0-4.2-1.5-7.5-4.4-9.7s-7.3-3.3-12.9-3.3H43.9v9.5l4.4,2.5C48.3-340.2,48.3-348.4,48.3-348.4z"/>
	</g>
	<g id="g410_1_" transform="translate(363.7441,748.71292)">
		<path id="path408_1_" class="st6" d="M74.5-348.1l0.6-3.9H49.3v47.5h26.6v-3.9H53.7v-18.2h18v-4h-18V-348h20.8V-348.1z"/>
	</g>
	<g id="g426_1_" transform="translate(435.083,748.89312)">
		<path id="path424_1_" class="st6" d="M98.8-348.5v-3.7H72.7v3.7h10.8v40H72.7v3.7h26.1v-3.7H88v-40H98.8z"/>
	</g>
	<path id="path434_1_" class="st6" d="M617.3,444.1l16.5-47.5h-4.4l-14,41.3l-13.8-41.3h-4.8l16.6,47.5H617.3z"/>
	<path id="path438_1_" class="st6" d="M696.8,440.4v3.7h26.1v-3.7h-10.8v-40h10.8v-3.7h-26.1v3.7h10.8v40H696.8z"/>
	<path id="path442_1_" class="st6" d="M816.2,400.6l0.6-3.9H791v47.5h26.6v-3.9h-22.2V422h18v-4h-18v-17.4H816.2z"/>
	<path id="path446_1_" class="st6" d="M887.6,400.5h7.9c4,0,6.9,0.7,8.8,2.2c1.9,1.5,2.8,3.8,2.8,7c0,3.4-1,5.9-3,7.4
		s-4.9,2.3-8.8,2.3h-7.7v-5.5l-4.4,2.5V442v2.1h4.4v-21h7.4l13.8,21h5.5l-14.7-21.4c3.6-0.8,6.6-2.3,8.8-4.6
		c2.3-2.3,3.4-5.1,3.4-8.6c0-4.2-1.5-7.5-4.4-9.7s-7.3-3.3-12.9-3.3h-11.3v9.5l4.4,2.5V400.5z"/>
	<path id="path450_1_" class="st6" d="M991,444.1h4.4v-43.4h14.9l0.5-4.1h-35v4.1H991V444.1z"/>
	<path id="path454_1_" class="st6" d="M1099.7,400.6l0.6-3.9h-25.8v47.5h26.6v-3.9h-22.2V422h18v-4h-18v-17.4H1099.7z"/>
	<path id="path458_1_" class="st6" d="M1169,396.7v47.5h25.8l0.6-4.3h-22v-43.2H1169z"/>
	<g id="g470_1_" transform="translate(192.4463,670.59332)">
		<path id="path468_1_" class="st6" d="M27.4-159.7h15.3v43.4h4.4v-43.4H62l0.5-4.1h-35v4.1H27.4z"/>
	</g>
	<g id="g486_1_" transform="translate(281.4854,671.19292)">
		<path id="path484_1_" class="st6" d="M53-161c4.1,0,7.5,1.3,10.3,4l2.9-3c-2-1.8-3.9-3.1-5.9-3.9c-1.9-0.8-4.3-1.2-7.2-1.2
			c-3.4,0-6.5,0.9-9.4,2.8c-2.9,1.8-5.3,4.6-7.1,8.3s-2.7,8.1-2.7,13.3c0,8,1.6,14.1,4.8,18.2s7.5,6.2,13,6.2c3.1,0,5.8-0.3,8.1-1
			s4.7-1.6,7.2-2.9v-22.4H51.4l0.6,4.1h10.4v15.5c-3.1,1.7-6.5,2.6-10,2.6c-4.5,0-7.9-1.7-10.2-5s-3.5-8.5-3.5-15.4
			c0-7.1,1.4-12.3,4.1-15.5C45.6-159.4,49-161,53-161"/>
	</g>
	<g id="g502_1_" transform="translate(343.104,655.11332)">
		<path id="path500_1_" class="st6" d="M73.3-126.4c0-3.8-0.1-8-0.4-12.7l-0.1-4.5l18,42.8h6.8v-47.5h-4.4v25.4
			c0,2.8,0.1,5.5,0.2,8.2s0.2,4.4,0.2,5c0.1,2.5,0.2,3.9,0.1,4.4l-18.5-43.1H69v47.5h4.4L73.3-126.4L73.3-126.4z"/>
	</g>
	<g id="g518_1_" transform="translate(421.2231,674.13332)">
		<path id="path516_1_" class="st6" d="M96.7-167.3L93-156.2l3.5,2l3-9l8.6,26.6H90.8l4.7-14.2l-5.2,3l-9.3,28h4.1l4.1-12.7h20.3
			l4.1,12.7h4.6l-15.8-47.5H96.7z"/>
	</g>
	<g id="g534_1_" transform="translate(499.6421,671.19292)">
		<path id="path532_1_" class="st6" d="M119-161c1.9,0,3.7,0.3,5.4,0.8s3.2,1.4,4.8,2.7l2.7-3.1c-2-1.6-4-2.7-6-3.4
			s-4.5-1.1-7.3-1.1c-3.6,0-6.9,0.9-9.9,2.8c-3,1.9-5.4,4.7-7.2,8.3c-1.8,3.7-2.7,8.1-2.7,13.2c0,5.2,0.9,9.6,2.7,13.3
			c1.8,3.7,4.2,6.5,7.2,8.4s6.4,2.8,10.2,2.8c5.8,0,10.4-1.6,13.7-4.8l-2.5-3.1c-1.5,1.2-3.1,2.1-4.9,2.8c-1.8,0.7-3.9,1-6.4,1
			c-4.7,0-8.4-1.6-11.2-4.9c-2.8-3.2-4.2-8.4-4.2-15.5c0-7.1,1.5-12.3,4.4-15.5C110.7-159.4,114.4-161,119-161"/>
	</g>
	<g id="g550_1_" transform="translate(555.3213,632.91312)">
		<path id="path548_1_" class="st6" d="M140.2-78.6h4.4v-23.3h19.9v23.3h4.4v-47.5h-4.4v20.6h-19.9v-20.6h-4.4V-78.6z"/>
	</g>
	<path id="path558_1_" class="st6" d="M785.8,506.8l16.6,47.5h3.9l16.5-47.5h-4.4l-14,41.3l-13.8-41.3H785.8z"/>
	<path id="path562_1_" class="st6" d="M889.4,515.4c2-3.5,5.1-5.3,9.4-5.3c4.3,0,7.4,1.7,9.4,5.2s3,8.5,3,15.2s-1,11.7-3,15.2
		c-2,3.4-5.1,5.1-9.4,5.1c-8.2,0-12.4-6.7-12.4-20.2c0-2.8,0.2-5.3,0.5-7.5l-4.9,2.8c-0.1,1.5-0.3,3.1-0.3,4.7
		c0,7.4,1.5,13.3,4.4,17.7s7.1,6.6,12.6,6.6s9.7-2.2,12.6-6.7c2.9-4.4,4.4-10.4,4.4-17.7c0-7.5-1.5-13.4-4.4-17.8
		c-2.9-4.4-7.1-6.6-12.6-6.6c-3.6,0-6.7,1-9.3,3.1c-2.5,2-4.3,4.8-5.6,8.3l3.8,2.2C888.2,518.1,888.7,516.7,889.4,515.4"/>
	<path id="path566_1_" class="st6" d="M1003,528.4c2.3-2.3,3.4-5.1,3.4-8.6c0-4.2-1.5-7.5-4.4-9.7s-7.3-3.3-12.9-3.3h-11.3v9.5
		l4.4,2.5v-8.2h7.9c4,0,6.9,0.7,8.8,2.2c1.9,1.5,2.8,3.8,2.8,7c0,3.4-1,5.9-3,7.4s-4.9,2.3-8.8,2.3h-7.7v-5.9l-4.4,2.5v28.2h4.4v-21
		h7.4l13.8,21h5.5l-14.7-21.4C997.8,532.1,1000.8,530.6,1003,528.4"/>
	<g id="g578_1_" transform="translate(853.6348,632.25302)">
		<path id="path576_1_" class="st6" d="M232.7-77.1c5.7,0,9.7-1.6,12-4.8c2.3-3.2,3.5-7,3.5-11.4v-32.1h-18.3v3.9h13.9v27.8
			c0,3.9-0.9,6.9-2.8,9.2c-1.9,2.3-4.5,3.4-8.1,3.4c-3.4,0-6.9-1.1-10.6-3.4l-2.1,3.1c1.8,1.4,3.7,2.4,6,3.2
			C228.4-77.5,230.6-77.1,232.7-77.1"/>
	</g>
	<g id="g594_1_" transform="translate(916.9922,655.71292)">
		<path id="path592_1_" class="st6" d="M252.9-127.7c0.2-4.2,0.3-8.8,0.3-13.5l-0.1-3.5l9.5,34.6h5.3l8.8-34.6c0,0.4,0.1,2,0.2,4.8
			c0.1,5.2,0.3,9.3,0.5,12.3l1.7,26.2h4.6l-2.7-47.5h-7.5l-8.1,33l-8.4-33h-7.4l-2.7,47.5h4.4L252.9-127.7z"/>
	</g>
	<g id="g610_1_" transform="translate(195.3262,596.13332)">
		<path id="path608_1_" class="st6" d="M27.8,20.8v47.5h4.4V45H52v23.3h4.4V20.8H52v20.6H32.1V20.8H27.8z"/>
	</g>
	<g id="g626_1_" transform="translate(267.145,554.91312)">
		<path id="path624_1_" class="st6" d="M50.2,109.5l4.1-12.7h20.3l4.1,12.7h4.6L67.6,62h-5.8l-3.6,10.8l3.5,2l2.8-8.7l8.6,26.6H55.9
			L60.7,78l-5.2,3l-9.4,28.4L50.2,109.5L50.2,109.5z"/>
	</g>
	<g id="g642_1_" transform="translate(365.604,558.63332)">
		<path id="path640_1_" class="st6" d="M74,101.5H52V58.3h-4.4v47.5h25.8L74,101.5z"/>
	</g>
	<g id="g658_1_" transform="translate(416.063,592.77302)">
		<path id="path656_1_" class="st6" d="M94.6,28h8.2c6.6,0,10,2.7,10,8.2c0,5.7-3.1,8.5-9.3,8.5h-8.8v-3.2l-4.4,2.6v6.1l4.4,2.6V49
			h9.1c3.3,0,6,0.7,7.9,2.1c2,1.4,3,4,3,7.6c0,3.4-1.1,5.7-3.3,7c-2.2,1.3-4.8,2-7.8,2h-9V57.2l-4.4,2.6v11.9h11.9
			c4.8,0,8.9-1.1,12.2-3.2c3.4-2.1,5-5.5,5-10.2c0-6.6-3.6-10.5-10.9-11.7c2.5-0.6,4.6-1.7,6.3-3.4c1.7-1.7,2.5-4.1,2.5-7
			c0-4.3-1.6-7.3-4.7-9.2c-3.2-1.8-7-2.7-11.6-2.7H90.2v10.3l4.4,2.6V28z"/>
	</g>
	<g id="g674_1_" transform="translate(502.1021,556.29302)">
		<path id="path672_1_" class="st6" d="M119.6,107.9c3.5-2,6-4.8,7.5-8.5c1.5-3.7,2.3-8.2,2.3-13.6c0-4.9-0.7-9.2-2-12.8
			c-1.3-3.7-3.3-6.5-5.8-8.6c-2.6-2-5.7-3.1-9.4-3.1c-3.7,0-6.8,1-9.4,3.1s-4.6,5-5.9,8.7c0,0.1-0.1,0.3-0.1,0.4l3.8,2.2
			c1.7-6.9,5.6-10.4,11.6-10.4c8.4,0,12.6,6.8,12.6,20.4c0,13.5-4.2,20.3-12.6,20.3c-4.2,0-7.4-1.7-9.5-5.2s-3.1-8.5-3.1-15
			c0-2.6,0.2-5,0.5-7.1l-4.9,2.8c-0.1,1.4-0.2,2.8-0.2,4.3c0,4.8,0.7,9.1,2,12.7s3.2,6.4,5.7,8.4s5.5,3,9,3c3.9,0,6.9,0.9,9.1,2.8
			c2.2,1.8,4,4.7,5.5,8.6l5.5-2.3c-1.1-3.4-2.6-5.9-4.4-7.6C125.3,109.8,122.8,108.6,119.6,107.9"/>
	</g>
	<g id="g690_1_" transform="translate(554.6011,554.91312)">
		<path id="path688_1_" class="st6" d="M140.1,109.5h29.6l0.6-4.1h-25.5l25.7-39.5V62h-27.8v4.1h23.4l-25.8,39.6v3.8H140.1z"/>
	</g>
	<path id="path704_1_" class="st6" d="M813.6,658.7l-6-36.3H801l-6.3,36.3l-6.1-41.8H784l7.1,47.5h6.9l6-36.4l6,36.4h6.7l7.7-47.5
		h-4.3L813.6,658.7z"/>
	<g id="g722_1_" transform="translate(703.5781,588.63332)">
		<path id="path720_1_" class="st6" d="M185.8,36.9c2-3.5,5.1-5.3,9.4-5.3c4.3,0,7.4,1.7,9.4,5.2s3,8.5,3,15.2s-1,11.7-3,15.2
			c-2,3.4-5.1,5.1-9.4,5.1c-8.2,0-12.4-6.7-12.4-20.2c0-2.5,0.1-4.8,0.4-6.9l-4.9,2.8c-0.1,1.3-0.2,2.7-0.2,4.1
			c0,7.4,1.5,13.3,4.4,17.7c2.9,4.4,7.1,6.6,12.6,6.6s9.7-2.2,12.6-6.7c2.9-4.4,4.4-10.4,4.4-17.7c0-7.5-1.5-13.4-4.4-17.8
			s-7.1-6.6-12.6-6.6c-3.6,0-6.7,1-9.3,3.1s-4.5,5-5.8,8.7c0,0.1,0,0.2-0.1,0.2l3.8,2.2C184.4,40,185,38.3,185.8,36.9"/>
	</g>
	<g id="g770_1_" transform="translate(778.4561,596.13332)">
		<path id="path768_1_" class="st6" d="M206,20.8h-4.4v47.5h25.8L228,64h-22L206,20.8L206,20.8z"/>
	</g>
	<g id="g786_1_" transform="translate(870.0146,596.13332)">
		<path id="path784_1_" class="st6" d="M231.3,20.8h-27v47.5h4.4V46.4h19.2v-3.8h-19.2V24.7h22L231.3,20.8z"/>
	</g>
	<g id="g802_1_" transform="translate(921.4326,592.89312)">
		<path id="path800_1_" class="st6" d="M250.7,27.8h7.8c3.6,0,6.5,0.8,8.7,2.5s3.2,4.4,3.2,8.2c0,4.1-1.1,7-3.3,8.7
			c-2.2,1.6-5.2,2.5-9.2,2.5h-7.3v-8.1l-4.4,2.5v27.5h4.4V53.3h6.4c5.7,0,10.1-1.2,13.3-3.6c3.2-2.4,4.8-6.2,4.8-11.4
			c0-4.8-1.6-8.4-4.7-10.7c-3.1-2.4-7.5-3.6-13.1-3.6h-11.2v10.3l4.4,2.5v-9H250.7z"/>
	</g>
	<g id="g818_1_" transform="translate(194.606,476.91312)">
		<path id="path816_1_" class="st6" d="M27.6,297.6h29.6l0.6-4.1H32.2L57.9,254v-3.9H30.1v4.1h23.4l-25.8,39.6v3.8H27.6z"/>
	</g>
	<g id="g834_1_" transform="translate(287.8452,481.83302)">
		<path id="path832_1_" class="st6" d="M53.4,287.1l-6-36.3h-6.6l-6.3,36.3l-6.1-41.8h-4.6l7.1,47.5h6.9l6-36.4l6,36.4h6.7l7.7-47.5
			H60L53.4,287.1z"/>
	</g>
	<g id="g850_1_" transform="translate(363.7441,514.71292)">
		<path id="path848_1_" class="st6" d="M74.5,216.3l0.6-3.9H49.3v47.5h26.6V256H53.7v-18.2h18v-4h-18v-17.4L74.5,216.3L74.5,216.3z"
			/>
	</g>
	<g id="g866_1_" transform="translate(412.4033,480.15342)">
		<path id="path864_1_" class="st6" d="M95.4,290.7v3.7h26.1v-3.7h-10.8v-40h10.8V247H95.4v3.7h10.8v40H95.4z"/>
	</g>
	<g id="g882_1_" transform="translate(488.8423,518.13382)">
		<path id="path880_1_" class="st6" d="M118.5,208.9h-6.4v47.5h4.4v-25.6c0-3.8-0.1-8-0.4-12.7l-0.1-4.5l18,42.8h6.8v-47.5h-4.4
			v25.4c0,2.8,0.1,5.5,0.2,8.2c0.1,2.7,0.2,4.4,0.2,5c0.1,2.5,0.2,3.9,0.1,4.4L118.5,208.9z"/>
	</g>
	<g id="g898_1_" transform="translate(574.3711,481.95322)">
		<path id="path896_1_" class="st6" d="M143.8,286.8c-2.3,1.7-5.1,2.5-8.5,2.5c-2.9,0-5.4-0.4-7.5-1.3c-2.1-0.9-4.1-2.2-5.8-3.8
			l-2.9,3.4c2,1.9,4.4,3.3,7.1,4.3s5.7,1.5,8.9,1.5c3.5,0,6.5-0.6,9-1.7c2.5-1.2,4.4-2.8,5.7-4.8c1.3-2.1,2-4.4,2-7.1
			c0-2.9-0.6-5.2-1.9-7c-1.2-1.8-2.8-3.3-4.8-4.3s-4.3-1.9-7.1-2.7c-3.2-0.9-5.7-1.8-7.5-2.7c-1.8-0.9-3.1-1.8-3.9-2.9
			s-1.2-2.3-1.2-3.8c0-2.5,1-4.4,2.9-5.7c1.9-1.3,4.4-2,7.3-2c4.5,0,8.3,1.5,11.6,4.4l3-3.2c-2.1-1.8-4.3-3.1-6.6-3.9
			c-2.3-0.9-5-1.3-8-1.3c-2.9,0-5.5,0.5-7.7,1.6c-2.2,1-3.9,2.5-5.1,4.3s-1.8,3.8-1.8,6c0,3.5,1.3,6.3,3.9,8.3s6.4,3.7,11.4,5.1
			c2.9,0.8,5.1,1.7,6.7,2.6c1.6,0.9,2.7,1.9,3.3,3s0.9,2.5,0.9,4.3C147.3,282.7,146.1,285.1,143.8,286.8"/>
	</g>
	<g id="g914_1_" transform="translate(628.4004,480.15342)">
		<path id="path912_1_" class="st6" d="M162.9,290.7v3.7H189v-3.7h-10.8v-40H189V247h-26.1v3.7h10.8v40H162.9z"/>
	</g>
	<g id="g930_1_" transform="translate(723.7383,514.71292)">
		<path id="path928_1_" class="st6" d="M187,216.3l0.6-3.9h-25.8v47.5h26.6V256h-22.2v-18.2h18v-4h-18v-17.4L187,216.3L187,216.3z"
			/>
	</g>
	<g id="g946_1_" transform="translate(788.0566,498.75302)">
		<path id="path944_1_" class="st6" d="M208.9,250.6c2.5-0.6,4.6-1.7,6.3-3.4c1.7-1.7,2.5-4.1,2.5-7c0-4.3-1.6-7.3-4.7-9.2
			c-3.2-1.8-7-2.7-11.6-2.7h-10.7v10.1l4.4,2.6v-8.8h8.2c6.6,0,10,2.7,10,8.2c0,5.7-3.1,8.5-9.3,8.5h-8.8v-3l-4.4,2.6v5.7l4.4,2.6
			v-3.6h9.1c3.3,0,6,0.7,7.9,2.1c2,1.4,3,4,3,7.6c0,3.4-1.1,5.7-3.3,7s-4.8,2-7.8,2h-9v-10.2l-4.4,2.6V276h11.9
			c4.8,0,8.9-1.1,12.2-3.2c3.4-2.1,5-5.5,5-10.2C219.8,255.8,216.2,251.9,208.9,250.6"/>
	</g>
	<g id="g962_1_" transform="translate(868.9346,480.27352)">
		<path id="path960_1_" class="st6" d="M232.1,290.4H210v-18.2h18v-4h-18v-17.4h20.8l0.6-3.9h-25.8v47.5h26.6v-4H232.1z"/>
	</g>
	<g id="g978_1_" transform="translate(920.832,518.13382)">
		<path id="path976_1_" class="st6" d="M253.5,208.9h-6.4v47.5h4.4v-25.6c0-3.8-0.1-8-0.4-12.7l-0.1-4.5l18,42.8h6.8v-47.5h-4.4
			v25.4c0,2.8,0.1,5.5,0.2,8.2s0.2,4.4,0.2,5c0.1,2.5,0.2,3.9,0.1,4.4L253.5,208.9z"/>
	</g>
	<g>
		<path id="path992_1_" class="st6" d="M225.8,837.2h-4.4v47.5h4.4V837.2z"/>
		<g id="g1008_1_" transform="translate(218.666,440.13292)">
			<path id="path1006_1_" class="st6" d="M27.9,397.1L7.5,419.2l21.4,25.4h5.8L13.3,419l20-21.9H27.9z"/>
		</g>
	</g>
	<g id="g1024_1_" transform="translate(271.105,436.77352)">
		<path id="path1022_1_" class="st6" d="M49.5,404.3H56c2.8,0,5.3,0.5,7.6,1.4c2.2,0.9,4.1,2.8,5.7,5.7c1.6,2.9,2.3,7.1,2.3,12.5
			c0,7.5-1.5,12.8-4.5,15.7c-3,3-6.7,4.5-11,4.5h-6.6v-26.8l-4.4,2.5v28h10.3c5.9,0,10.8-1.7,14.9-5.2s6.1-9.7,6.1-18.8
			c0-9-2-15.1-6-18.5c-4-3.3-9.3-5-15.8-5h-9.5v10l4.4,2.5L49.5,404.3z"/>
	</g>
	<g id="g1040_1_" transform="translate(362.604,421.41312)">
		<path id="path1038_1_" class="st6" d="M73.5,437.4c2.3-2.3,3.4-5.1,3.4-8.6c0-4.2-1.5-7.5-4.4-9.7s-7.3-3.3-12.9-3.3H48.2v10
			l4.4,2.5v-8.7h7.9c4,0,6.9,0.7,8.8,2.2s2.8,3.8,2.8,7c0,3.4-1,5.9-3,7.4s-4.9,2.3-8.8,2.3h-7.7v-5.7l-4.4,2.5v28h4.4v-21H60
			l13.8,21h5.5l-14.7-21.4C68.3,441.1,71.2,439.6,73.5,437.4"/>
	</g>
	<g id="g1056_1_" transform="translate(436.9434,402.27352)">
		<path id="path1054_1_" class="st6" d="M97.2,478.5H75v-18.2h18v-4H75v-17.4h20.8l0.6-3.9H70.6v47.5h26.6V478.5z"/>
	</g>
	<g id="g1072_1_" transform="translate(484.4023,402.15342)">
		<path id="path1070_1_" class="st6" d="M117.9,478.8v3.7H144v-3.7h-10.8v-40H144v-3.7h-26.1v3.7h10.8v40H117.9z"/>
	</g>
	<g id="g1088_1_" transform="translate(578.6006,421.41312)">
		<path id="path1086_1_" class="st6" d="M141,437.4c2.3-2.3,3.4-5.1,3.4-8.6c0-4.2-1.5-7.5-4.4-9.7s-7.3-3.3-12.9-3.3h-11.3v10.7
			l4.4,2.5v-9.4h7.9c4,0,6.9,0.7,8.8,2.2c1.9,1.5,2.8,3.8,2.8,7c0,3.4-1,5.9-3,7.4s-4.9,2.3-8.8,2.3H120v-5l-4.4,2.5v27.3h4.4v-21
			h7.4l13.8,21h5.5L132,441.9C135.8,441.1,138.7,439.6,141,437.4"/>
	</g>
	<g id="g1104_1_" transform="translate(627.3203,398.91312)">
		<path id="path1102_1_" class="st6" d="M162.7,485.8h4.4v-23.3H187v23.3h4.4v-47.5H187v20.6h-20v-20.6h-4.4L162.7,485.8
			L162.7,485.8z"/>
	</g>
	<g id="g1120_1_" transform="translate(725.5381,436.71292)">
		<path id="path1118_1_" class="st6" d="M186.2,404.4l0.6-3.9h-27V448h4.4v-21.8h19.2v-3.8h-19.2v-17.9h22V404.4z"/>
	</g>
	<g>
		<g id="g1136_1_" transform="translate(791.6865,445.83302)">
			<path id="path1134_1_" class="st6" d="M210.8,383.4c0.6-0.6,0.9-1.3,0.9-2.2c0-1-0.3-1.7-0.9-2.3c-0.6-0.6-1.4-0.9-2.3-0.9
				c-0.9,0-1.7,0.3-2.3,0.9s-0.9,1.4-0.9,2.3s0.3,1.6,0.9,2.2c0.6,0.6,1.4,0.9,2.3,0.9C209.4,384.3,210.1,384,210.8,383.4"/>
		</g>
		<g id="g1152_1_" transform="translate(792.9766,410.79302)">
			<path id="path1150_1_" class="st6" d="M211,458.8c0,3.3-1,5.8-2.9,7.6c-1.9,1.7-4.5,2.6-7.8,2.6s-5.9-0.9-7.8-2.6
				c-1.9-1.7-2.9-4.3-2.9-7.6V425h-4.4v32.3c0,3.1,0.6,5.9,1.9,8.3c1.2,2.4,3,4.3,5.3,5.6c2.3,1.3,4.9,2,7.9,2c2.9,0,5.6-0.7,7.9-2
				c2.3-1.3,4.1-3.2,5.4-5.6c1.3-2.4,1.9-5.2,1.9-8.3V425H211V458.8z"/>
		</g>
		<g id="g1168_1_" transform="translate(779.6562,445.83302)">
			<path id="path1166_1_" class="st6" d="M208.9,383.4c0.6-0.6,0.9-1.3,0.9-2.2c0-1-0.3-1.7-0.9-2.3c-0.6-0.6-1.3-0.9-2.2-0.9
				s-1.7,0.3-2.3,0.9s-0.9,1.4-0.9,2.3s0.3,1.6,0.9,2.2c0.6,0.6,1.4,0.9,2.3,0.9S208.3,384,208.9,383.4"/>
		</g>
	</g>
	<g id="g1184_1_" transform="translate(848.834,440.13292)">
		<path id="path1182_1_" class="st6" d="M231,397.1h-6.4v47.5h4.4V419c0-3.8-0.1-8-0.4-12.7l-0.1-4.5l18,42.8h6.8v-47.5h-4.4v25.4
			c0,2.8,0.1,5.5,0.2,8.2c0.1,2.7,0.2,4.4,0.2,5c0.1,2.5,0.2,3.9,0.1,4.4L231,397.1z"/>
	</g>
	<g id="g1200_1_" transform="translate(941.5322,436.71292)">
		<path id="path1198_1_" class="st6" d="M253.7,404.4l0.6-3.9h-27V448h4.4v-21.8h19.2v-3.8h-19.2v-17.9h22V404.4z"/>
	</g>
	<g id="g1216_1_" transform="translate(220.9463,324.27352)">
		<path id="path1214_1_" class="st6" d="M29.7,666.7H7.6v-18.2h18v-4h-18V627h20.8l0.6-3.9H3.1v47.5h26.6V666.7z"/>
	</g>
	<g id="g1232_1_" transform="translate(270.625,362.13292)">
		<path id="path1230_1_" class="st6" d="M48,585.2v47.5h25.8l0.6-4.3h-22v-43.2H48z"/>
	</g>
	<g id="g1248_1_" transform="translate(365.5439,358.71292)">
		<path id="path1246_1_" class="st6" d="M73.8,592.6l0.6-3.9h-27v47.5h4.4v-21.8H71v-3.8H51.7v-17.9L73.8,592.6L73.8,592.6z"/>
	</g>
	<g id="g1264_1_" transform="translate(436.1631,362.13292)">
		<path id="path1262_1_" class="st6" d="M99,585.2h-4.4v25.4c0,2.8,0.1,5.5,0.2,8.2s0.2,4.4,0.2,5c0.1,2.5,0.2,3.9,0.1,4.4
			l-18.5-43.1h-6.4v47.5h4.4V607c0-3.8-0.1-8-0.4-12.7l-0.1-4.5l18,42.8H99V585.2z"/>
	</g>
	<g id="g1280_1_" transform="translate(507.7422,358.71292)">
		<path id="path1278_1_" class="st6" d="M119.5,592.6l0.6-3.9H94.3v47.5h26.6v-3.9H98.7V614h18v-4h-18v-17.4H119.5z"/>
	</g>
	<g id="g1296_1_" transform="translate(554.6011,362.13292)">
		<path id="path1294_1_" class="st6" d="M140.1,585.3v32.3c0,3.1,0.6,5.9,1.9,8.3c1.2,2.4,3,4.3,5.3,5.6s4.9,2,7.9,2
			c2.9,0,5.6-0.7,7.9-2c2.3-1.3,4.1-3.2,5.4-5.6c1.3-2.4,1.9-5.2,1.9-8.3v-32.3h-4.5v33.8c0,3.3-1,5.8-2.9,7.6
			c-1.9,1.7-4.5,2.6-7.8,2.6s-5.9-0.9-7.8-2.6s-2.9-4.3-2.9-7.6v-33.8H140.1z"/>
	</g>
	<path id="path1310_1_" class="st6" d="M790,994.8h4.4v-25.6c0-3.8-0.1-8-0.4-12.7l-0.1-4.5l18,42.8h6.8v-47.5h-4.4v25.4
		c0,2.8,0.1,5.5,0.2,8.2c0.1,2.7,0.2,4.4,0.2,5c0.1,2.5,0.2,3.9,0.1,4.4l-18.5-43.1H790V994.8z"/>
	<g id="g1328_1_" transform="translate(711.8584,326.31352)">
		<path id="path1326_1_" class="st6" d="M187.1,662.3L173.3,621h-4.8l16.6,47.5h3.9l16.5-47.5h-4.4L187.1,662.3z"/>
	</g>
	<g id="g1344_1_" transform="translate(772.3965,324.15342)">
		<path id="path1342_1_" class="st6" d="M207.8,666.9v3.7H234v-3.7h-10.8v-40H234v-3.7h-26.1v3.7h10.8v40H207.8z"/>
	</g>
	<g id="g1360_1_" transform="translate(868.9346,324.27352)">
		<path id="path1358_1_" class="st6" d="M232.1,666.7H210v-18.2h18v-4h-18V627h20.8l0.6-3.9h-25.8v47.5h26.6v-3.9H232.1z"/>
	</g>
	<g id="g1376_1_" transform="translate(938.5928,343.41312)">
		<path id="path1374_1_" class="st6" d="M253.4,625.5c2.3-2.3,3.4-5.1,3.4-8.6c0-4.2-1.5-7.5-4.4-9.7s-7.3-3.3-12.9-3.3h-11.3v9.6
			l4.4,2.5v-8.3h7.9c4,0,6.9,0.7,8.8,2.2c1.9,1.5,2.8,3.8,2.8,7c0,3.4-1,5.9-3,7.4s-4.9,2.3-8.8,2.3h-7.7V621l-4.4,2.5v27.9h4.4v-21
			h7.4l13.8,21h5.5L244.6,630C248.2,629.3,251.2,627.8,253.4,625.5"/>
	</g>
	<g id="g1392_1_" transform="translate(215.8462,247.83302)">
		<path id="path1390_1_" class="st6" d="M30.9,851.5l-6-36.3h-6.6L12,851.5l-6.1-41.8H1.3l7.1,47.5h6.9l6-36.4l6,36.4H34l7.7-47.5
			h-4.3L30.9,851.5z"/>
	</g>
	<g id="g1408_1_" transform="translate(277.2251,284.13292)">
		<path id="path1406_1_" class="st6" d="M51.7,773.4L48,784.5l3.5,2l2.9-9l8.6,26.6H45.8l4.6-14.2l-5.2,3L36,820.8h4.1l4.1-12.7
			h20.3l4.1,12.7h4.6l-15.8-47.5h-5.7V773.4z"/>
	</g>
	<g id="g1424_1_" transform="translate(361.0142,246.75302)">
		<path id="path1422_1_" class="st6" d="M74.9,853.8c-1.8,0.7-3.9,1-6.4,1c-4.7,0-8.4-1.6-11.2-4.9c-2.8-3.2-4.2-8.4-4.2-15.5
			s1.5-12.3,4.4-15.5s6.7-4.8,11.3-4.8c1.9,0,3.7,0.3,5.4,0.8c1.7,0.5,3.2,1.4,4.8,2.7l2.7-3.1c-2-1.6-4-2.7-6-3.4s-4.5-1.1-7.3-1.1
			c-3.6,0-6.9,0.9-9.9,2.8c-3,1.9-5.4,4.7-7.2,8.3c-1.8,3.7-2.7,8.1-2.7,13.2c0,5.2,0.9,9.6,2.7,13.3s4.2,6.5,7.2,8.4
			s6.4,2.8,10.2,2.8c5.8,0,10.4-1.6,13.7-4.8l-2.5-3.1C78.3,852.2,76.7,853.1,74.9,853.8"/>
	</g>
	<g id="g1440_1_" transform="translate(436.1631,242.91312)">
		<path id="path1438_1_" class="st6" d="M99,862.1v-47.5h-4.4v20.6H74.7v-20.6h-4.4v47.5h4.4v-23.3h19.9v23.3H99z"/>
	</g>
	<g id="g1456_1_" transform="translate(480.4424,280.59282)">
		<path id="path1454_1_" class="st6" d="M117.4,781h15.3v43.4h4.4V781H152l0.5-4.1h-35L117.4,781L117.4,781z"/>
	</g>
	<path id="path1464_1_" class="st6" d="M694.7,1105h29.6l0.6-4.1h-25.5l25.7-39.5v-3.9h-27.8v4.1h23.4l-25.8,39.6v3.8H694.7z"/>
	<path id="path1468_1_" class="st6" d="M817.6,1101.1h-22.2v-18.2h18v-4h-18v-17.4h20.8l0.6-3.9H791v47.5h26.6V1101.1z"/>
	<path id="path1472_1_" class="st6" d="M884.5,1057.5v47.5h4.4v-23.3h19.9v23.3h4.4v-47.5h-4.4v20.6h-19.9v-20.6H884.5z"/>
	<path id="path1476_1_" class="st6" d="M979,1105h4.4v-25.6c0-3.8-0.1-8-0.4-12.7l-0.1-4.5l18,42.8h6.8v-47.5h-4.4v25.4
		c0,2.8,0.1,5.5,0.2,8.2c0.1,2.7,0.2,4.4,0.2,5c0.1,2.5,0.2,3.9,0.1,4.4l-18.5-43.1H979V1105z"/>
	<g id="g1488_1_" transform="translate(866.5947,265.41312)">
		<path id="path1486_1_" class="st6" d="M230.9,813.6c2.3-2.3,3.4-5.1,3.4-8.6c0-4.2-1.5-7.5-4.4-9.7s-7.3-3.3-12.9-3.3h-11.3v9.7
			l4.4,2.5v-8.4h7.9c4,0,6.9,0.7,8.8,2.2c1.9,1.5,2.8,3.8,2.8,7c0,3.4-1,5.9-3,7.4s-4.9,2.3-8.8,2.3H210V809l-4.4,2.5v28.1h4.4v-21
			h7.4l13.8,21h5.5L222,818.2C225.7,817.4,228.7,815.9,230.9,813.6"/>
	</g>
	<g id="g1504_1_" transform="translate(934.3623,247.95322)">
		<path id="path1502_1_" class="st6" d="M256.2,851.2c-2.3,1.7-5.1,2.5-8.5,2.5c-2.9,0-5.4-0.4-7.5-1.3c-2.1-0.9-4.1-2.2-5.8-3.8
			l-2.9,3.4c2,1.9,4.4,3.3,7.1,4.3s5.7,1.5,8.9,1.5c3.5,0,6.5-0.6,9-1.7c2.5-1.2,4.4-2.8,5.7-4.8s2-4.4,2-7.1c0-2.9-0.6-5.2-1.9-7
			c-1.2-1.8-2.8-3.3-4.8-4.3s-4.3-1.9-7.1-2.7c-3.2-0.9-5.7-1.8-7.5-2.7s-3.1-1.8-3.9-2.9c-0.8-1.1-1.2-2.3-1.2-3.8
			c0-2.5,1-4.4,2.9-5.7s4.4-2,7.3-2c4.5,0,8.3,1.5,11.6,4.4l3-3.2c-2.1-1.7-4.3-3.1-6.6-3.9c-2.3-0.9-5-1.3-8.1-1.3
			c-2.9,0-5.5,0.5-7.7,1.6c-2.2,1-3.9,2.5-5.1,4.3c-1.2,1.8-1.8,3.8-1.8,6c0,3.5,1.3,6.3,3.9,8.3c2.6,2,6.4,3.7,11.4,5.1
			c2.9,0.8,5.1,1.7,6.7,2.6c1.6,0.9,2.7,1.9,3.3,3s0.9,2.5,0.9,4.3C259.7,847.1,258.6,849.6,256.2,851.2"/>
	</g>
	<g id="g1520_1_" transform="translate(212.0659,186.75302)">
		<path id="path1518_1_" class="st6" d="M29,1003.2c2.5-0.6,4.6-1.7,6.3-3.4s2.5-4.1,2.5-7c0-4.3-1.6-7.3-4.7-9.2
			c-3.2-1.8-7-2.7-11.6-2.7H10.7v10.2l4.4,2.6v-8.9h8.2c6.6,0,10,2.7,10,8.2c0,5.7-3.1,8.5-9.3,8.5h-8.8v-3l-4.4,2.6v5.8l4.4,2.6
			v-3.7h9.1c3.3,0,6,0.7,7.9,2.1c2,1.4,3,4,3,7.6c0,3.4-1.1,5.7-3.3,7s-4.8,2-7.8,2h-9V1014l-4.4,2.6v11.8h11.9
			c4.8,0,8.9-1.1,12.2-3.2c3.4-2.1,5-5.5,5-10.2C39.9,1008.4,36.3,1004.4,29,1003.2"/>
	</g>
	<g id="g1536_1_" transform="translate(287.5752,185.97272)">
		<path id="path1534_1_" class="st6" d="M54,1004.9c-2-1-4.3-1.9-7.1-2.7c-3.2-0.9-5.7-1.8-7.5-2.7s-3.1-1.8-3.9-2.9
			c-0.8-1.1-1.2-2.3-1.2-3.8c0-2.5,1-4.4,2.9-5.7s4.4-2,7.3-2c4.5,0,8.3,1.5,11.6,4.4l3-3.2c-2.1-1.8-4.3-3.1-6.6-3.9
			c-2.3-0.9-5-1.3-8.1-1.3c-2.9,0-5.5,0.5-7.7,1.6c-2.2,1-3.9,2.5-5.1,4.2c-1.2,1.8-1.8,3.8-1.8,6c0,3.5,1.3,6.3,3.9,8.3
			s6.4,3.7,11.4,5.1c2.9,0.8,5.1,1.7,6.7,2.6c1.6,0.9,2.7,1.9,3.3,3s0.9,2.5,0.9,4.3c0,3.2-1.2,5.6-3.5,7.3
			c-2.3,1.7-5.1,2.5-8.5,2.5c-2.9,0-5.4-0.4-7.5-1.3s-4.1-2.2-5.8-3.8l-2.9,3.4c2,1.9,4.4,3.3,7.1,4.3c2.8,1,5.7,1.5,8.9,1.5
			c3.5,0,6.5-0.6,9-1.7c2.5-1.2,4.4-2.8,5.7-4.8s2-4.4,2-7.1c0-2.9-0.6-5.2-1.9-7C57.6,1007.3,56,1005.9,54,1004.9"/>
	</g>
	<g id="g1552_1_" transform="translate(345.6841,184.11332)">
		<path id="path1550_1_" class="st6" d="M71.8,1008.9h18v-4h-18v-17.4h20.8l0.6-3.9H67.4v47.5H94v-3.9H71.8V1008.9z"/>
	</g>
	<g id="g1568_1_" transform="translate(433.0132,168.75302)">
		<path id="path1566_1_" class="st6" d="M97.4,1041.9c-1.8,0.7-3.9,1-6.4,1c-4.7,0-8.4-1.6-11.2-4.9c-2.8-3.2-4.2-8.4-4.2-15.5
			s1.5-12.3,4.4-15.5c2.9-3.2,6.7-4.8,11.3-4.8c1.9,0,3.7,0.3,5.4,0.8c1.7,0.5,3.2,1.4,4.8,2.7l2.7-3.1c-2-1.6-4-2.7-6-3.4
			s-4.5-1.1-7.3-1.1c-3.6,0-6.9,0.9-9.9,2.8c-3,1.9-5.4,4.7-7.2,8.3c-1.8,3.7-2.7,8.1-2.7,13.2c0,5.2,0.9,9.6,2.7,13.3
			c1.8,3.7,4.2,6.5,7.2,8.4s6.4,2.8,10.2,2.8c5.8,0,10.4-1.6,13.7-4.8l-2.5-3.1C100.8,1040.3,99.1,1041.2,97.4,1041.9"/>
	</g>
	<g id="g1584_1_" transform="translate(504.3823,188.25302)">
		<path id="path1582_1_" class="st6" d="M120.9,1000H101v-20.6h-4.4v47.5h4.4v-23.3h19.9v23.3h4.4v-47.5h-4.4V1000z"/>
	</g>
	<g id="g1600_1_" transform="translate(575.5713,185.97272)">
		<path id="path1598_1_" class="st6" d="M144,1004.9c-2-1-4.3-1.9-7.1-2.7c-3.2-0.9-5.7-1.8-7.5-2.7s-3.1-1.8-3.9-2.9
			c-0.8-1.1-1.2-2.3-1.2-3.8c0-2.5,1-4.4,2.9-5.7c1.9-1.3,4.4-2,7.3-2c4.5,0,8.3,1.5,11.6,4.4l3-3.2c-2.1-1.8-4.3-3.1-6.6-3.9
			c-2.3-0.9-5-1.3-8-1.3c-2.9,0-5.5,0.5-7.7,1.6c-2.2,1-3.9,2.5-5.1,4.2c-1.2,1.8-1.8,3.8-1.8,6c0,3.5,1.3,6.3,3.9,8.3
			s6.4,3.7,11.4,5.1c2.9,0.8,5.1,1.7,6.7,2.6c1.6,0.9,2.7,1.9,3.3,3s0.9,2.5,0.9,4.3c0,3.2-1.2,5.6-3.5,7.3
			c-2.3,1.7-5.1,2.5-8.5,2.5c-2.9,0-5.4-0.4-7.5-1.3c-2.1-0.9-4.1-2.2-5.8-3.8l-2.9,3.4c2,1.9,4.4,3.3,7.1,4.3
			c2.8,1,5.7,1.5,8.9,1.5c3.5,0,6.5-0.6,9-1.7c2.5-1.2,4.4-2.8,5.7-4.8s2-4.4,2-7.1c0-2.9-0.6-5.2-1.9-7
			C147.5,1007.3,145.9,1005.9,144,1004.9"/>
	</g>
	<g id="g1616_1_" transform="translate(630.5605,164.91312)">
		<path id="path1614_1_" class="st6" d="M160.2,1050.2h4.4v-21.8h19.2v-3.8h-19.2v-17.9h22l0.6-3.9h-27V1050.2z"/>
	</g>
	<g id="g1632_1_" transform="translate(718.8779,206.13282)">
		<path id="path1630_1_" class="st6" d="M188.1,961.5l-8.1,33l-8.4-33h-7.4l-2.7,47.5h4.4l1.6-26.3c0.2-4.2,0.3-8.8,0.3-13.5
			l-0.1-3.5l9.5,34.6h5.3l8.8-34.6c0,0.4,0.1,2,0.2,4.8c0.1,5.2,0.3,9.3,0.5,12.3l1.7,26.2h4.6l-2.7-47.5H188.1z"/>
	</g>
	<g id="g1648_1_" transform="translate(792.9766,176.79302)">
		<path id="path1646_1_" class="st6" d="M211,1024.7c0,3.3-1,5.8-2.9,7.6c-1.9,1.7-4.5,2.6-7.8,2.6s-5.9-0.9-7.8-2.6
			c-1.9-1.7-2.9-4.3-2.9-7.6v-33.8h-4.4v32.3c0,3.1,0.6,5.9,1.9,8.3c1.2,2.4,3,4.3,5.3,5.6c2.3,1.3,4.9,2,7.9,2c2.9,0,5.6-0.7,7.9-2
			c2.3-1.3,4.1-3.2,5.4-5.6c1.3-2.4,1.9-5.2,1.9-8.3v-32.3H211V1024.7z"/>
	</g>
	<g id="g1664_1_" transform="translate(864.374,188.25302)">
		<path id="path1662_1_" class="st6" d="M233.4,1000h-19.9v-20.6h-4.4v47.5h4.4v-23.3h19.9v23.3h4.4v-47.5h-4.4V1000z"/>
	</g>
	<g id="g1680_1_" transform="translate(938.5928,187.41312)">
		<path id="path1678_1_" class="st6" d="M253.4,1001.8c2.3-2.3,3.4-5.1,3.4-8.6c0-4.2-1.5-7.5-4.4-9.7s-7.3-3.3-12.9-3.3h-11.3v9.7
			l4.4,2.5V984h7.9c4,0,6.9,0.7,8.8,2.2c1.9,1.5,2.8,3.8,2.8,7c0,3.4-1,5.9-3,7.4s-4.9,2.3-8.8,2.3h-7.7v-5.7l-4.4,2.5v28h4.4v-21
			h7.4l13.8,21h5.5l-14.7-21.4C248.2,1005.6,251.2,1004,253.4,1001.8"/>
	</g>
	<path id="path36_1_" class="st6" d="M340.2,218.1c-2.3,1.7-5.1,2.5-8.5,2.5c-2.9,0-5.4-0.4-7.5-1.3c-2.1-0.9-4.1-2.2-5.8-3.8
		l-2.9,3.4c2,1.9,4.4,3.3,7.1,4.3s5.7,1.5,8.9,1.5c3.5,0,6.5-0.6,9-1.7c2.5-1.2,4.4-2.8,5.7-4.8c1.3-2.1,2-4.4,2-7.1
		c0-2.9-0.6-5.2-1.9-7c-1.2-1.8-2.8-3.3-4.8-4.3s-4.3-1.9-7.1-2.7c-3.2-0.9-5.7-1.8-7.5-2.7s-3.1-1.8-3.9-2.9
		c-0.8-1.1-1.2-2.3-1.2-3.8c0-2.5,1-4.4,2.9-5.7s4.4-2,7.3-2c4.5,0,8.3,1.5,11.6,4.4l3-3.2c-2.1-1.8-4.3-3.1-6.6-3.9
		c-2.3-0.9-5-1.3-8.1-1.3c-2.9,0-5.5,0.5-7.7,1.6c-2.2,1-3.9,2.5-5.1,4.3s-1.8,3.8-1.8,6c0,3.5,1.3,6.3,3.9,8.3s6.4,3.7,11.4,5.1
		c2.9,0.8,5.1,1.7,6.7,2.6c1.6,0.9,2.7,1.9,3.3,3c0.6,1.1,0.9,2.5,0.9,4.3C343.7,214,342.5,216.4,340.2,218.1"/>
	<g>
		<g id="g48_1_" transform="translate(367.4043,908.13332)">
			<path id="path46_1_" class="st6" d="M73.6-731.7h-5.5l-20.4,22.1l21.4,25.4h5.8l-21.4-25.6L73.6-731.7z"/>
		</g>
		<path id="path62_1_" class="st6" d="M414.8,176.4h-4.4v47.5h4.4V176.4z"/>
	</g>
	<path id="path70_1_" class="st6" d="M533.9,220.1h-10.8v-40h10.8v-3.7h-26.1v3.7h10.8v40h-10.8v3.7h26.1V220.1z"/>
	<path id="path74_1_" class="st6" d="M623.7,218.1c-2.3,1.7-5.1,2.5-8.5,2.5c-2.9,0-5.4-0.4-7.5-1.3c-2.1-0.9-4.1-2.2-5.8-3.8
		l-2.9,3.4c2,1.9,4.4,3.3,7.1,4.3c2.8,1,5.7,1.5,8.9,1.5c3.5,0,6.5-0.6,9-1.7c2.5-1.2,4.4-2.8,5.7-4.8c1.3-2.1,2-4.4,2-7.1
		c0-2.9-0.6-5.2-1.9-7c-1.2-1.8-2.8-3.3-4.8-4.3s-4.3-1.9-7.1-2.7c-3.2-0.9-5.7-1.8-7.5-2.7s-3.1-1.8-3.9-2.9
		c-0.8-1.1-1.2-2.3-1.2-3.8c0-2.5,1-4.4,2.9-5.7s4.4-2,7.3-2c4.5,0,8.3,1.5,11.6,4.4l3-3.2c-2.1-1.8-4.3-3.1-6.6-3.9
		c-2.3-0.9-5-1.3-8.1-1.3c-2.9,0-5.5,0.5-7.7,1.6c-2.2,1-3.9,2.5-5.1,4.3c-1.2,1.8-1.8,3.8-1.8,6c0,3.5,1.3,6.3,3.9,8.3
		c2.6,2,6.4,3.7,11.4,5.1c2.9,0.8,5.1,1.7,6.7,2.6c1.6,0.9,2.7,1.9,3.3,3s0.9,2.5,0.9,4.3C627.2,214,626,216.4,623.7,218.1"/>
	<path id="path78_1_" class="st6" d="M707.6,223.9h4.4v-43.4h14.9l0.5-4.1h-35v4.1h15.3L707.6,223.9z"/>
	<g id="g90_1_" transform="translate(653.6006,870.63332)">
		<path id="path88_1_" class="st6" d="M163.9-651.1h-22v-43.2h-4.4v47.5h25.8L163.9-651.1z"/>
	</g>
	<g id="g106_1_" transform="translate(706.3984,885.87312)">
		<path id="path104_1_" class="st6" d="M183.3-683.8h19.2v-3.8h-19.2v-17.9h22l0.6-3.9h-27v47.5h4.4V-683.8z"/>
	</g>
	<g>
		<g id="g122_1_" transform="translate(776.7764,868.05332)">
			<path id="path120_1_" class="st6" d="M208.5-646.9c2.3,1.3,4.9,2,7.9,2c2.9,0,5.6-0.7,7.9-2c2.3-1.3,4.1-3.2,5.4-5.6
				c1.3-2.4,1.9-5.2,1.9-8.3v-32.3h-4.5v33.8c0,3.3-1,5.8-2.9,7.6c-1.9,1.7-4.5,2.6-7.8,2.6s-5.9-0.9-7.8-2.6
				c-1.9-1.7-2.9-4.3-2.9-7.6v-33.8h-4.4v32.3c0,3.1,0.6,5.9,1.9,8.3C204.5-650.1,206.2-648.3,208.5-646.9"/>
		</g>
		<g id="g138_1_" transform="translate(789.6768,913.05332)">
			<path id="path136_1_" class="st6" d="M210.5-743.8c0.9,0,1.7-0.3,2.3-0.9c0.6-0.6,0.9-1.3,0.9-2.2c0-1-0.3-1.8-0.9-2.3
				c-0.6-0.6-1.4-0.9-2.3-0.9c-0.9,0-1.7,0.3-2.3,0.9c-0.6,0.6-0.9,1.4-0.9,2.3c0,0.9,0.3,1.6,0.9,2.2
				C208.8-744.1,209.5-743.8,210.5-743.8"/>
		</g>
		<g id="g154_1_" transform="translate(777.7363,913.05332)">
			<path id="path152_1_" class="st6" d="M208.6-743.8c0.9,0,1.6-0.3,2.2-0.9c0.6-0.6,0.9-1.3,0.9-2.2c0-1-0.3-1.8-0.9-2.3
				c-0.6-0.6-1.3-0.9-2.2-0.9s-1.7,0.3-2.3,0.9c-0.6,0.6-0.9,1.4-0.9,2.3c0,0.9,0.3,1.6,0.9,2.2C207-744.1,207.7-743.8,208.6-743.8"
				/>
		</g>
	</g>
	<g id="g170_1_" transform="translate(847.0947,889.11332)">
		<path id="path168_1_" class="st6" d="M230.7-690.8c0-3.8-0.1-8-0.4-12.7l-0.1-4.5l18,42.8h6.8v-47.5h-4.4v25.4
			c0,2.8,0.1,5.5,0.2,8.2c0.1,2.7,0.2,4.4,0.2,5c0.1,2.5,0.2,3.9,0.1,4.4l-18.5-43.1h-6.4v47.5h4.4L230.7-690.8L230.7-690.8z"/>
	</g>
	<g id="g186_1_" transform="translate(922.3926,885.87312)">
		<path id="path184_1_" class="st6" d="M250.8-683.8H270v-3.8h-19.2v-17.9h22l0.6-3.9h-27v47.5h4.4L250.8-683.8L250.8-683.8z"/>
	</g>
	<path id="path24_1_" class="st6" d="M250.7,220h-22.2v-18.2h18v-4h-18v-17.4h20.8l0.6-3.9h-25.8V224h26.6L250.7,220L250.7,220z"/>
	<g>
		<g id="g1136_2_" transform="translate(791.6865,445.83302)">
			<path id="path1134_2_" class="st6" d="M116.3,161.5c0.6-0.6,0.9-1.3,0.9-2.2c0-1-0.3-1.7-0.9-2.3s-1.4-0.9-2.3-0.9
				s-1.7,0.3-2.3,0.9c-0.6,0.6-0.9,1.4-0.9,2.3c0,0.9,0.3,1.6,0.9,2.2c0.6,0.6,1.4,0.9,2.3,0.9S115.7,162.1,116.3,161.5"/>
		</g>
		<g id="g1168_2_" transform="translate(779.6562,445.83302)">
			<path id="path1166_2_" class="st6" d="M114.5,161.5c0.6-0.6,0.9-1.3,0.9-2.2c0-1-0.3-1.7-0.9-2.3s-1.3-0.9-2.2-0.9
				c-0.9,0-1.7,0.3-2.3,0.9c-0.6,0.6-0.9,1.4-0.9,2.3c0,0.9,0.3,1.6,0.9,2.2c0.6,0.6,1.4,0.9,2.3,0.9
				C113.1,162.4,113.9,162.1,114.5,161.5"/>
		</g>
	</g>
	<path id="path8744_1_" class="st6" d="M522.7,1344.4c2.4,0,4.7-0.8,7-2.4l2,2.8c-1.1,1-2.5,1.8-4.2,2.4s-3.3,0.9-4.9,0.9
		c-4,0-7.1-1.2-9.4-3.7c-2.2-2.5-3.3-5.9-3.3-10.2c0-2.7,0.5-5.1,1.5-7.3c1-2.2,2.5-3.8,4.4-5.1c1.9-1.2,4.2-1.8,6.8-1.8
		c3.5,0,6.5,1.1,9,3.2l-2.1,2.8c-2.4-1.6-4.7-2.4-7-2.4c-2.4,0-4.4,0.9-5.8,2.7c-1.4,1.8-2.2,4.4-2.2,7.8s0.7,6,2.2,7.7
		S520.2,1344.4,522.7,1344.4z"/>
	<path id="path8746_1_" class="st6" d="M616.6,1339.5c0,2.4,1.5,3.6,4.5,3.6c1.4,0,2.9-0.3,4.5-0.9l1.1,3.1
		c-1.7,0.9-3.8,1.4-6.4,1.4c-2.4,0-4.4-0.7-5.8-2c-1.4-1.3-2.2-3.1-2.2-5.4v-27.5H604v-3.4h12.6V1339.5z"/>
	<path id="path8748_1_" class="st6" d="M695.3,1307c-4.5,0-6.7,1.4-6.4,4.1l1,10.5c0,0.3,0.1,0.8,0.1,1.3c0,1.6-0.4,2.9-1.2,3.8
		s-2,1.4-3.6,1.7c1.7,0.3,2.9,0.9,3.6,1.7c0.8,0.8,1.2,2.1,1.2,3.7c0,0.6,0,1-0.1,1.4l-1,10.5c-0.1,1.5,0.4,2.6,1.5,3.2
		c1.2,0.6,2.8,0.9,4.9,0.9v3.4c-3.1,0-5.6-0.5-7.5-1.6s-2.9-2.9-2.9-5.4c0-0.4,0-0.8,0.1-1l1.1-9.7c0-0.2,0.1-0.6,0.1-1
		c0-1.5-0.6-2.6-1.7-3.3c-1.1-0.7-3.2-1.1-6.1-1.1v-3.5c3,0,5-0.3,6.1-1s1.7-1.8,1.7-3.3c0-0.4,0-0.7-0.1-1l-1.1-9.8
		c0-0.2-0.1-0.6-0.1-1c0-2.5,1-4.3,2.9-5.4s4.5-1.6,7.5-1.6V1307z"/>
	<path id="path8750_1_" class="st6" d="M725.7,1303.6c3.1,0,5.6,0.5,7.5,1.6s2.9,2.9,2.9,5.4c0,0.4,0,0.8-0.1,1l-1.1,9.8
		c0,0.2-0.1,0.4-0.1,0.8c0,1.5,0.6,2.7,1.8,3.4c1.2,0.8,3.2,1.1,6,1.1v3.5c-2.8,0-4.8,0.4-6,1.1c-1.2,0.8-1.8,1.9-1.8,3.5
		c0,0.3,0,0.6,0.1,0.8l1.1,9.7c0,0.2,0.1,0.6,0.1,1c0,2.5-1,4.3-2.9,5.4s-4.5,1.6-7.5,1.6v-3.4c2.1,0,3.7-0.3,4.9-0.9
		s1.7-1.7,1.5-3.2l-1-10.5c-0.1-0.7-0.1-1.1-0.1-1.4c0-1.7,0.4-3,1.3-3.8c0.9-0.8,2.2-1.4,4.1-1.6c-1.8-0.3-3.2-0.9-4.1-1.8
		c-0.9-0.9-1.3-2.2-1.3-3.8c0-0.5,0-1,0.1-1.3l1-10.5c0.3-2.7-1.9-4.1-6.4-4.1V1303.6z"/>
	<path id="path8752_1_" class="st6" d="M806.1,1344.4c2.4,0,4.7-0.8,7-2.4l2,2.8c-1.1,1-2.5,1.8-4.2,2.4s-3.3,0.9-4.9,0.9
		c-4,0-7.1-1.2-9.4-3.7c-2.2-2.5-3.3-5.9-3.3-10.2c0-2.7,0.5-5.1,1.5-7.3c1-2.2,2.5-3.8,4.4-5.1c1.9-1.2,4.2-1.8,6.8-1.8
		c3.5,0,6.5,1.1,9,3.2l-2.1,2.8c-2.4-1.6-4.7-2.4-7-2.4c-2.4,0-4.4,0.9-5.8,2.7c-1.4,1.8-2.2,4.4-2.2,7.8s0.7,6,2.2,7.7
		C801.7,1343.5,803.7,1344.4,806.1,1344.4z"/>
	<path id="path8754_1_" class="st6" d="M891.3,1307.7v38.3H887v-37.8L891.3,1307.7z M909.2,1319.1l-12.1,12.2l13.5,14.8H905
		l-13.3-14.7l12-12.2h5.5V1319.1z"/>
</g>
<g id="Schnittmuster" class="st1">
	<rect x="0.6" y="0" class="st7" width="1416.7" height="595.3"/>
	<rect x="0.6" y="575.3" class="st8" width="1416.7" height="595.3"/>
	<rect y="1139.5" class="st9" width="1416.8" height="595.3"/>
	<line class="st10" x1="0.8" y1="1139.5" x2="1416.8" y2="1139.5"/>
	<line class="st10" x1="0.8" y1="575" x2="1416.8" y2="575"/>
	<line class="st10" x1="0.8" y1="1420.8" x2="1416.8" y2="1420.8"/>
</g>
<g id="LEDs" class="st1">
	<g class="st2">
		<rect x="230.3" y="193.2" class="st11" width="14.2" height="14.2"/>
		<rect x="324.8" y="193.2" class="st11" width="14.2" height="14.2"/>
		<rect x="419.3" y="193.2" class="st11" width="14.2" height="14.2"/>
		<rect x="513.8" y="193.2" class="st11" width="14.2" height="14.2"/>
		<rect x="608.3" y="193.2" class="st11" width="14.2" height="14.2"/>
		<rect x="702.8" y="193.2" class="st11" width="14.2" height="14.2"/>
		<rect x="797.2" y="193.2" class="st11" width="14.2" height="14.2"/>
		<rect x="891.7" y="193.2" class="st11" width="14.2" height="14.2"/>
		<rect x="986.2" y="193.2" class="st11" width="14.2" height="14.2"/>
		<rect x="1080.7" y="193.2" class="st11" width="14.2" height="14.2"/>
		<rect x="1175.2" y="193.2" class="st11" width="14.2" height="14.2"/>
	</g>
	<g class="st2">
		<rect x="230.3" y="303.2" class="st11" width="14.2" height="14.2"/>
		<rect x="324.8" y="303.2" class="st11" width="14.2" height="14.2"/>
		<rect x="419.3" y="303.2" class="st11" width="14.2" height="14.2"/>
		<rect x="513.8" y="303.2" class="st11" width="14.2" height="14.2"/>
		<rect x="608.3" y="303.2" class="st11" width="14.2" height="14.2"/>
		<rect x="702.8" y="303.2" class="st11" width="14.2" height="14.2"/>
		<rect x="797.2" y="303.2" class="st11" width="14.2" height="14.2"/>
		<rect x="891.7" y="303.2" class="st11" width="14.2" height="14.2"/>
		<rect x="986.2" y="303.2" class="st11" width="14.2" height="14.2"/>
		<rect x="1080.7" y="303.2" class="st11" width="14.2" height="14.2"/>
		<rect x="1175.2" y="303.2" class="st11" width="14.2" height="14.2"/>
	</g>
	<g class="st2">
		<rect x="230.3" y="413.3" class="st11" width="14.2" height="14.2"/>
		<rect x="324.8" y="413.3" class="st11" width="14.2" height="14.2"/>
		<rect x="419.3" y="413.3" class="st11" width="14.2" height="14.2"/>
		<rect x="513.8" y="413.3" class="st11" width="14.2" height="14.2"/>
		<rect x="608.3" y="413.3" class="st11" width="14.2" height="14.2"/>
		<rect x="702.8" y="413.3" class="st11" width="14.2" height="14.2"/>
		<rect x="797.2" y="413.3" class="st11" width="14.2" height="14.2"/>
		<rect x="891.7" y="413.3" class="st11" width="14.2" height="14.2"/>
		<rect x="986.2" y="413.3" class="st11" width="14.2" height="14.2"/>
		<rect x="1080.7" y="413.3" class="st11" width="14.2" height="14.2"/>
		<rect x="1175.2" y="413.3" class="st11" width="14.2" height="14.2"/>
	</g>
	<g class="st2">
		<rect x="230.3" y="523.5" class="st11" width="14.2" height="14.2"/>
		<rect x="324.8" y="523.5" class="st11" width="14.2" height="14.2"/>
		<rect x="419.3" y="523.5" class="st11" width="14.2" height="14.2"/>
		<rect x="513.8" y="523.5" class="st11" width="14.2" height="14.2"/>
		<rect x="608.3" y="523.5" class="st11" width="14.2" height="14.2"/>
		<rect x="702.8" y="523.5" class="st11" width="14.2" height="14.2"/>
		<rect x="797.2" y="523.5" class="st11" width="14.2" height="14.2"/>
		<rect x="891.7" y="523.5" class="st11" width="14.2" height="14.2"/>
		<rect x="986.2" y="523.5" class="st11" width="14.2" height="14.2"/>
		<rect x="1080.7" y="523.5" class="st11" width="14.2" height="14.2"/>
		<rect x="1175.2" y="523.5" class="st11" width="14.2" height="14.2"/>
	</g>
	<g class="st2">
		<rect x="230.3" y="633.6" class="st11" width="14.2" height="14.2"/>
		<rect x="324.8" y="633.6" class="st11" width="14.2" height="14.2"/>
		<rect x="419.3" y="633.6" class="st11" width="14.2" height="14.2"/>
		<rect x="513.8" y="633.6" class="st11" width="14.2" height="14.2"/>
		<rect x="608.3" y="633.6" class="st11" width="14.2" height="14.2"/>
		<rect x="702.8" y="633.6" class="st11" width="14.2" height="14.2"/>
		<rect x="797.2" y="633.6" class="st11" width="14.2" height="14.2"/>
		<rect x="891.7" y="633.6" class="st11" width="14.2" height="14.2"/>
		<rect x="986.2" y="633.6" class="st11" width="14.2" height="14.2"/>
		<rect x="1080.7" y="633.6" class="st11" width="14.2" height="14.2"/>
		<rect x="1175.2" y="633.6" class="st11" width="14.2" height="14.2"/>
	</g>
	<g class="st2">
		<rect x="230.3" y="743.7" class="st11" width="14.2" height="14.2"/>
		<rect x="324.8" y="743.7" class="st11" width="14.2" height="14.2"/>
		<rect x="419.3" y="743.7" class="st11" width="14.2" height="14.2"/>
		<rect x="513.8" y="743.7" class="st11" width="14.2" height="14.2"/>
		<rect x="608.3" y="743.7" class="st11" width="14.2" height="14.2"/>
		<rect x="702.8" y="743.7" class="st11" width="14.2" height="14.2"/>
		<rect x="797.2" y="743.7" class="st11" width="14.2" height="14.2"/>
		<rect x="891.7" y="743.7" class="st11" width="14.2" height="14.2"/>
		<rect x="986.2" y="743.7" class="st11" width="14.2" height="14.2"/>
		<rect x="1080.7" y="743.7" class="st11" width="14.2" height="14.2"/>
		<rect x="1175.2" y="743.7" class="st11" width="14.2" height="14.2"/>
	</g>
	<g class="st2">
		<rect x="230.3" y="853.9" class="st11" width="14.2" height="14.2"/>
		<rect x="324.8" y="853.9" class="st11" width="14.2" height="14.2"/>
		<rect x="419.3" y="853.9" class="st11" width="14.2" height="14.2"/>
		<rect x="513.8" y="853.9" class="st11" width="14.2" height="14.2"/>
		<rect x="608.3" y="853.9" class="st11" width="14.2" height="14.2"/>
		<rect x="702.8" y="853.9" class="st11" width="14.2" height="14.2"/>
		<rect x="797.2" y="853.9" class="st11" width="14.2" height="14.2"/>
		<rect x="891.7" y="853.9" class="st11" width="14.2" height="14.2"/>
		<rect x="986.2" y="853.9" class="st11" width="14.2" height="14.2"/>
		<rect x="1080.7" y="853.9" class="st11" width="14.2" height="14.2"/>
		<rect x="1175.2" y="853.9" class="st11" width="14.2" height="14.2"/>
	</g>
	<g class="st2">
		<rect x="230.3" y="964" class="st11" width="14.2" height="14.2"/>
		<rect x="324.8" y="964" class="st11" width="14.2" height="14.2"/>
		<rect x="419.3" y="964" class="st11" width="14.2" height="14.2"/>
		<rect x="513.8" y="964" class="st11" width="14.2" height="14.2"/>
		<rect x="608.3" y="964" class="st11" width="14.2" height="14.2"/>
		<rect x="702.8" y="964" class="st11" width="14.2" height="14.2"/>
		<rect x="797.2" y="964" class="st11" width="14.2" height="14.2"/>
		<rect x="891.7" y="964" class="st11" width="14.2" height="14.2"/>
		<rect x="986.2" y="964" class="st11" width="14.2" height="14.2"/>
		<rect x="1080.7" y="964" class="st11" width="14.2" height="14.2"/>
		<rect x="1175.2" y="964" class="st11" width="14.2" height="14.2"/>
	</g>
	<g class="st2">
		<rect x="230.3" y="1074.2" class="st11" width="14.2" height="14.2"/>
		<rect x="324.8" y="1074.2" class="st11" width="14.2" height="14.2"/>
		<rect x="419.3" y="1074.2" class="st11" width="14.2" height="14.2"/>
		<rect x="513.8" y="1074.2" class="st11" width="14.2" height="14.2"/>
		<rect x="608.3" y="1074.2" class="st11" width="14.2" height="14.2"/>
		<rect x="702.8" y="1074.2" class="st11" width="14.2" height="14.2"/>
		<rect x="797.2" y="1074.2" class="st11" width="14.2" height="14.2"/>
		<rect x="891.7" y="1074.2" class="st11" width="14.2" height="14.2"/>
		<rect x="986.2" y="1074.2" class="st11" width="14.2" height="14.2"/>
		<rect x="1080.7" y="1074.2" class="st11" width="14.2" height="14.2"/>
		<rect x="1175.2" y="1074.2" class="st11" width="14.2" height="14.2"/>
	</g>
	<g class="st2">
		<rect x="230.3" y="1184.3" class="st11" width="14.2" height="14.2"/>
		<rect x="324.8" y="1184.3" class="st11" width="14.2" height="14.2"/>
		<rect x="419.3" y="1184.3" class="st11" width="14.2" height="14.2"/>
		<rect x="513.8" y="1184.3" class="st11" width="14.2" height="14.2"/>
		<rect x="608.3" y="1184.3" class="st11" width="14.2" height="14.2"/>
		<rect x="702.8" y="1184.3" class="st11" width="14.2" height="14.2"/>
		<rect x="797.2" y="1184.3" class="st11" width="14.2" height="14.2"/>
		<rect x="891.7" y="1184.3" class="st11" width="14.2" height="14.2"/>
		<rect x="986.2" y="1184.3" class="st11" width="14.2" height="14.2"/>
		<rect x="1080.7" y="1184.3" class="st11" width="14.2" height="14.2"/>
		<rect x="1175.2" y="1184.3" class="st11" width="14.2" height="14.2"/>
	</g>
	<g class="st2">
		<rect x="513.8" y="1321.3" class="st11" width="14.2" height="14.2"/>
		<rect x="608.3" y="1321.3" class="st11" width="14.2" height="14.2"/>
		<rect x="702.8" y="1321.3" class="st11" width="14.2" height="14.2"/>
		<rect x="797.2" y="1321.3" class="st11" width="14.2" height="14.2"/>
		<rect x="891.7" y="1321.3" class="st11" width="14.2" height="14.2"/>
	</g>
</g>
<g id="Zahlen" class="st1">
	<rect x="482.1" y="1284" class="st12" width="77.5" height="89"/>
	<text transform="matrix(1 0 0 1 514.5698 1314.71)" class="st13 st14 st15">0</text>
	<rect x="576.6" y="1284" class="st12" width="77.5" height="89"/>
	<text transform="matrix(1 0 0 1 609.0579 1314.71)" class="st13 st14 st15">1</text>
	<rect x="671.1" y="1284" class="st12" width="77.5" height="89"/>
	<text transform="matrix(1 0 0 1 703.546 1314.71)" class="st13 st14 st15">2</text>
	<rect x="765.6" y="1284" class="st12" width="77.5" height="89"/>
	<text transform="matrix(1 0 0 1 798.0341 1314.71)" class="st13 st14 st15">3</text>
	<rect x="860.1" y="1284" class="st12" width="77.5" height="89"/>
	<text transform="matrix(1 0 0 1 892.5222 1314.71)" class="st13 st14 st15">4</text>
	<rect x="198.6" y="1144.7" class="st12" width="77.5" height="89"/>
	<text transform="matrix(1 0 0 1 231.0298 1175.4108)" class="st13 st14 st15">5</text>
	<rect x="293.1" y="1144.7" class="st12" width="77.5" height="89"/>
	<text transform="matrix(1 0 0 1 325.518 1175.4108)" class="st13 st14 st15">6</text>
	<rect x="387.6" y="1144.7" class="st12" width="77.5" height="89"/>
	<text transform="matrix(1 0 0 1 420.0062 1175.4108)" class="st13 st14 st15">7</text>
	<rect x="482.1" y="1144.7" class="st12" width="77.5" height="89"/>
	<text transform="matrix(1 0 0 1 514.4944 1175.4108)" class="st13 st14 st15">8</text>
	<rect x="576.5" y="1144.7" class="st12" width="77.5" height="89"/>
	<text transform="matrix(1 0 0 1 608.9826 1175.4108)" class="st13 st14 st15">9</text>
	<rect x="671" y="1144.7" class="st12" width="77.5" height="89"/>
	<text transform="matrix(1 0 0 1 697.171 1175.4108)" class="st13 st14 st15">10</text>
	<rect x="765.5" y="1144.7" class="st12" width="77.5" height="89"/>
	<text transform="matrix(1 0 0 1 791.6592 1175.4108)" class="st13 st14 st15">11</text>
	<rect x="860" y="1144.7" class="st12" width="77.5" height="89"/>
	<text transform="matrix(1 0 0 1 886.1473 1175.4108)" class="st13 st14 st15">12</text>
	<rect x="954.5" y="1144.7" class="st12" width="77.5" height="89"/>
	<text transform="matrix(1 0 0 1 980.6356 1175.4108)" class="st13 st14 st15">13</text>
	<rect x="1049" y="1144.7" class="st12" width="77.5" height="89"/>
	<text transform="matrix(1 0 0 1 1075.1238 1175.4108)" class="st13 st14 st15">14</text>
	<rect x="1143.5" y="1144.7" class="st12" width="77.5" height="89"/>
	<text transform="matrix(1 0 0 1 1169.6118 1175.4108)" class="st13 st14 st15">15</text>
	<rect x="198.6" y="1035.4" class="st12" width="77.5" height="89"/>
	<text transform="matrix(1 0 0 1 224.7563 1066.0568)" class="st13 st14 st15">26</text>
	<rect x="293.1" y="1035.4" class="st12" width="77.5" height="89"/>
	<text transform="matrix(1 0 0 1 319.2444 1066.0568)" class="st13 st14 st15">25</text>
	<rect x="387.6" y="1035.4" class="st12" width="77.5" height="89"/>
	<text transform="matrix(1 0 0 1 413.7326 1066.0568)" class="st13 st14 st15">24</text>
	<rect x="482.1" y="1035.4" class="st12" width="77.5" height="89"/>
	<text transform="matrix(1 0 0 1 508.2208 1066.0568)" class="st13 st14 st15">23</text>
	<rect x="576.6" y="1035.4" class="st12" width="77.5" height="89"/>
	<text transform="matrix(1 0 0 1 602.709 1066.0568)" class="st13 st14 st15">22</text>
	<rect x="671.1" y="1035.4" class="st12" width="77.5" height="89"/>
	<text transform="matrix(1 0 0 1 697.1972 1066.0568)" class="st13 st14 st15">21</text>
	<rect x="765.5" y="1035.4" class="st12" width="77.5" height="89"/>
	<text transform="matrix(1 0 0 1 791.6854 1066.0568)" class="st13 st14 st15">20</text>
	<rect x="860" y="1035.4" class="st12" width="77.5" height="89"/>
	<text transform="matrix(1 0 0 1 886.1736 1066.0568)" class="st13 st14 st15">19</text>
	<rect x="954.5" y="1035.4" class="st12" width="77.5" height="89"/>
	<text transform="matrix(1 0 0 1 980.6617 1066.0568)" class="st13 st14 st15">18</text>
	<rect x="1049" y="1035.4" class="st12" width="77.5" height="89"/>
	<text transform="matrix(1 0 0 1 1075.1499 1066.0568)" class="st13 st14 st15">17</text>
	<rect x="1143.5" y="1035.4" class="st12" width="77.5" height="89"/>
	<text transform="matrix(1 0 0 1 1169.6382 1066.0568)" class="st13 st14 st15">16</text>
	<rect x="198.6" y="925" class="st12" width="77.5" height="89"/>
	<text transform="matrix(1 0 0 1 224.7563 955.709)" class="st13 st14 st15">27</text>
	<rect x="293.1" y="925" class="st12" width="77.5" height="89"/>
	<text transform="matrix(1 0 0 1 319.2444 955.709)" class="st13 st14 st15">28</text>
	<rect x="387.6" y="925" class="st12" width="77.5" height="89"/>
	<text transform="matrix(1 0 0 1 413.7326 955.709)" class="st13 st14 st15">29</text>
	<rect x="482.1" y="925" class="st12" width="77.5" height="89"/>
	<text transform="matrix(1 0 0 1 508.2208 955.709)" class="st13 st14 st15">30</text>
	<rect x="576.6" y="925" class="st12" width="77.5" height="89"/>
	<text transform="matrix(1 0 0 1 602.709 955.709)" class="st13 st14 st15">31</text>
	<rect x="671.1" y="925" class="st12" width="77.5" height="89"/>
	<text transform="matrix(1 0 0 1 697.1972 955.709)" class="st13 st14 st15">32</text>
	<rect x="765.5" y="925" class="st12" width="77.5" height="89"/>
	<text transform="matrix(1 0 0 1 791.6854 955.709)" class="st13 st14 st15">33</text>
	<rect x="860" y="925" class="st12" width="77.5" height="89"/>
	<text transform="matrix(1 0 0 1 886.1736 955.709)" class="st13 st14 st15">34</text>
	<rect x="954.5" y="925" class="st12" width="77.5" height="89"/>
	<text transform="matrix(1 0 0 1 980.6617 955.709)" class="st13 st14 st15">35</text>
	<rect x="1049" y="925" class="st12" width="77.5" height="89"/>
	<text transform="matrix(1 0 0 1 1075.1499 955.709)" class="st13 st14 st15">36</text>
	<rect x="1143.5" y="925" class="st12" width="77.5" height="89"/>
	<text transform="matrix(1 0 0 1 1169.6382 955.709)" class="st13 st14 st15">37</text>
	<rect x="198.6" y="814.7" class="st12" width="77.5" height="89"/>
	<text transform="matrix(1 0 0 1 224.7563 845.3611)" class="st13 st14 st15">48</text>
	<rect x="293.1" y="814.7" class="st12" width="77.5" height="89"/>
	<text transform="matrix(1 0 0 1 319.2444 845.3611)" class="st13 st14 st15">47</text>
	<rect x="387.6" y="814.7" class="st12" width="77.5" height="89"/>
	<text transform="matrix(1 0 0 1 413.7326 845.3611)" class="st13 st14 st15">46</text>
	<rect x="482.1" y="814.7" class="st12" width="77.5" height="89"/>
	<text transform="matrix(1 0 0 1 508.2208 845.3611)" class="st13 st14 st15">45</text>
	<rect x="576.6" y="814.7" class="st12" width="77.5" height="89"/>
	<text transform="matrix(1 0 0 1 602.709 845.3611)" class="st13 st14 st15">44</text>
	<rect x="671.1" y="814.7" class="st12" width="77.5" height="89"/>
	<text transform="matrix(1 0 0 1 697.1972 845.3611)" class="st13 st14 st15">43</text>
	<rect x="765.5" y="814.7" class="st12" width="77.5" height="89"/>
	<text transform="matrix(1 0 0 1 791.6854 845.3611)" class="st13 st14 st15">42</text>
	<rect x="860" y="814.7" class="st12" width="77.5" height="89"/>
	<text transform="matrix(1 0 0 1 886.1736 845.3611)" class="st13 st14 st15">41</text>
	<rect x="954.5" y="814.7" class="st12" width="77.5" height="89"/>
	<text transform="matrix(1 0 0 1 980.6617 845.3611)" class="st13 st14 st15">40</text>
	<rect x="1049" y="814.7" class="st12" width="77.5" height="89"/>
	<text transform="matrix(1 0 0 1 1075.1499 845.3611)" class="st13 st14 st15">39</text>
	<rect x="1143.5" y="814.7" class="st12" width="77.5" height="89"/>
	<text transform="matrix(1 0 0 1 1169.6382 845.3611)" class="st13 st14 st15">38</text>
	<rect x="198.6" y="704.3" class="st12" width="77.5" height="89"/>
	<text transform="matrix(1 0 0 1 224.7563 735.0133)" class="st13 st14 st15">49</text>
	<rect x="293.1" y="704.3" class="st12" width="77.5" height="89"/>
	<text transform="matrix(1 0 0 1 319.2444 735.0133)" class="st13 st14 st15">50</text>
	<rect x="387.6" y="704.3" class="st12" width="77.5" height="89"/>
	<text transform="matrix(1 0 0 1 413.7326 735.0133)" class="st13 st14 st15">51</text>
	<rect x="482.1" y="704.3" class="st12" width="77.5" height="89"/>
	<text transform="matrix(1 0 0 1 508.2208 735.0133)" class="st13 st14 st15">52</text>
	<rect x="576.6" y="704.3" class="st12" width="77.5" height="89"/>
	<text transform="matrix(1 0 0 1 602.709 735.0133)" class="st13 st14 st15">53</text>
	<rect x="671.1" y="704.3" class="st12" width="77.5" height="89"/>
	<text transform="matrix(1 0 0 1 697.1972 735.0133)" class="st13 st14 st15">54</text>
	<rect x="765.5" y="704.3" class="st12" width="77.5" height="89"/>
	<text transform="matrix(1 0 0 1 791.6854 735.0133)" class="st13 st14 st15">55</text>
	<rect x="860" y="704.3" class="st12" width="77.5" height="89"/>
	<text transform="matrix(1 0 0 1 886.1736 735.0133)" class="st13 st14 st15">56</text>
	<rect x="954.5" y="704.3" class="st12" width="77.5" height="89"/>
	<text transform="matrix(1 0 0 1 980.6617 735.0133)" class="st13 st14 st15">57</text>
	<rect x="1049" y="704.3" class="st12" width="77.5" height="89"/>
	<text transform="matrix(1 0 0 1 1075.1499 735.0133)" class="st13 st14 st15">58</text>
	<rect x="1143.5" y="704.3" class="st12" width="77.5" height="89"/>
	<text transform="matrix(1 0 0 1 1169.6382 735.0133)" class="st13 st14 st15">59</text>
	<rect x="198.6" y="594" class="st12" width="77.5" height="89"/>
	<text transform="matrix(1 0 0 1 224.7563 624.6655)" class="st13 st14 st15">70</text>
	<rect x="293.1" y="594" class="st12" width="77.5" height="89"/>
	<text transform="matrix(1 0 0 1 319.2444 624.6655)" class="st13 st14 st15">69</text>
	<rect x="387.6" y="594" class="st12" width="77.5" height="89"/>
	<text transform="matrix(1 0 0 1 413.7326 624.6655)" class="st13 st14 st15">68</text>
	<rect x="482.1" y="594" class="st12" width="77.5" height="89"/>
	<text transform="matrix(1 0 0 1 508.2208 624.6655)" class="st13 st14 st15">67</text>
	<rect x="576.6" y="594" class="st12" width="77.5" height="89"/>
	<text transform="matrix(1 0 0 1 602.709 624.6655)" class="st13 st14 st15">66</text>
	<rect x="671.1" y="594" class="st12" width="77.5" height="89"/>
	<text transform="matrix(1 0 0 1 697.1972 624.6655)" class="st13 st14 st15">65</text>
	<rect x="765.5" y="594" class="st12" width="77.5" height="89"/>
	<text transform="matrix(1 0 0 1 791.6854 624.6655)" class="st13 st14 st15">64</text>
	<rect x="860" y="594" class="st12" width="77.5" height="89"/>
	<text transform="matrix(1 0 0 1 886.1736 624.6655)" class="st13 st14 st15">63</text>
	<rect x="954.5" y="594" class="st12" width="77.5" height="89"/>
	<text transform="matrix(1 0 0 1 980.6617 624.6655)" class="st13 st14 st15">62</text>
	<rect x="1049" y="594" class="st12" width="77.5" height="89"/>
	<text transform="matrix(1 0 0 1 1075.1499 624.6655)" class="st13 st14 st15">61</text>
	<rect x="1143.5" y="594" class="st12" width="77.5" height="89"/>
	<text transform="matrix(1 0 0 1 1169.6382 624.6655)" class="st13 st14 st15">60</text>
	<rect x="198.6" y="483.7" class="st12" width="77.5" height="89"/>
	<text transform="matrix(1 0 0 1 224.7563 514.3176)" class="st13 st14 st15">71</text>
	<rect x="293.1" y="483.7" class="st12" width="77.5" height="89"/>
	<text transform="matrix(1 0 0 1 319.2444 514.3176)" class="st13 st14 st15">72</text>
	<rect x="387.6" y="483.7" class="st12" width="77.5" height="89"/>
	<text transform="matrix(1 0 0 1 413.7326 514.3176)" class="st13 st14 st15">73</text>
	<rect x="482.1" y="483.7" class="st12" width="77.5" height="89"/>
	<text transform="matrix(1 0 0 1 508.2208 514.3176)" class="st13 st14 st15">74</text>
	<rect x="576.6" y="483.7" class="st12" width="77.5" height="89"/>
	<text transform="matrix(1 0 0 1 602.709 514.3176)" class="st13 st14 st15">75</text>
	<rect x="671.1" y="483.7" class="st12" width="77.5" height="89"/>
	<text transform="matrix(1 0 0 1 697.1972 514.3176)" class="st13 st14 st15">76</text>
	<rect x="765.5" y="483.7" class="st12" width="77.5" height="89"/>
	<text transform="matrix(1 0 0 1 791.6854 514.3176)" class="st13 st14 st15">77</text>
	<rect x="860" y="483.7" class="st12" width="77.5" height="89"/>
	<text transform="matrix(1 0 0 1 886.1736 514.3176)" class="st13 st14 st15">78</text>
	<rect x="954.5" y="483.7" class="st12" width="77.5" height="89"/>
	<text transform="matrix(1 0 0 1 980.6617 514.3176)" class="st13 st14 st15">79</text>
	<rect x="1049" y="483.7" class="st12" width="77.5" height="89"/>
	<text transform="matrix(1 0 0 1 1075.1499 514.3176)" class="st13 st14 st15">80</text>
	<rect x="1143.5" y="483.7" class="st12" width="77.5" height="89"/>
	<text transform="matrix(1 0 0 1 1169.6382 514.3176)" class="st13 st14 st15">81</text>
	<rect x="198.6" y="373.3" class="st12" width="77.5" height="89"/>
	<text transform="matrix(1 0 0 1 224.7563 403.9698)" class="st13 st14 st15">92</text>
	<rect x="293.1" y="373.3" class="st12" width="77.5" height="89"/>
	<text transform="matrix(1 0 0 1 319.2444 403.9698)" class="st13 st14 st15">91</text>
	<rect x="387.6" y="373.3" class="st12" width="77.5" height="89"/>
	<text transform="matrix(1 0 0 1 413.7326 403.9698)" class="st13 st14 st15">90</text>
	<rect x="482.1" y="373.3" class="st12" width="77.5" height="89"/>
	<text transform="matrix(1 0 0 1 508.2208 403.9698)" class="st13 st14 st15">89</text>
	<rect x="576.6" y="373.3" class="st12" width="77.5" height="89"/>
	<text transform="matrix(1 0 0 1 602.709 403.9698)" class="st13 st14 st15">88</text>
	<rect x="671.1" y="373.3" class="st12" width="77.5" height="89"/>
	<text transform="matrix(1 0 0 1 697.1972 403.9698)" class="st13 st14 st15">87</text>
	<rect x="765.5" y="373.3" class="st12" width="77.5" height="89"/>
	<text transform="matrix(1 0 0 1 791.6854 403.9698)" class="st13 st14 st15">86</text>
	<rect x="860" y="373.3" class="st12" width="77.5" height="89"/>
	<text transform="matrix(1 0 0 1 886.1736 403.9698)" class="st13 st14 st15">85</text>
	<rect x="954.5" y="373.3" class="st12" width="77.5" height="89"/>
	<text transform="matrix(1 0 0 1 980.6617 403.9698)" class="st13 st14 st15">84</text>
	<rect x="1049" y="373.3" class="st12" width="77.5" height="89"/>
	<text transform="matrix(1 0 0 1 1075.1499 403.9698)" class="st13 st14 st15">83</text>
	<rect x="1143.5" y="373.3" class="st12" width="77.5" height="89"/>
	<text transform="matrix(1 0 0 1 1169.6382 403.9698)" class="st13 st14 st15">82</text>
	<rect x="198.6" y="263" class="st12" width="77.5" height="89"/>
	<text transform="matrix(1 0 0 1 224.7563 293.6219)" class="st13 st14 st15">93</text>
	<rect x="293.1" y="263" class="st12" width="77.5" height="89"/>
	<text transform="matrix(1 0 0 1 319.2444 293.6219)" class="st13 st14 st15">94</text>
	<rect x="387.6" y="263" class="st12" width="77.5" height="89"/>
	<text transform="matrix(1 0 0 1 413.7326 293.6219)" class="st13 st14 st15">95</text>
	<rect x="482.1" y="263" class="st12" width="77.5" height="89"/>
	<text transform="matrix(1 0 0 1 508.2208 293.6219)" class="st13 st14 st15">96</text>
	<rect x="576.6" y="263" class="st12" width="77.5" height="89"/>
	<text transform="matrix(1 0 0 1 602.709 293.6219)" class="st13 st14 st15">97</text>
	<rect x="671.1" y="263" class="st12" width="77.5" height="89"/>
	<text transform="matrix(1 0 0 1 697.1972 293.6219)" class="st13 st14 st15">98</text>
	<rect x="765.5" y="263" class="st12" width="77.5" height="89"/>
	<text transform="matrix(1 0 0 1 791.6854 293.6219)" class="st13 st14 st15">99</text>
	<rect x="860" y="263" class="st12" width="77.5" height="89"/>
	<text transform="matrix(1 0 0 1 879.8733 293.6219)" class="st13 st14 st15">100</text>
	<rect x="954.5" y="263" class="st12" width="77.5" height="89"/>
	<text transform="matrix(1 0 0 1 974.3615 293.6219)" class="st13 st14 st15">101</text>
	<rect x="1049" y="263" class="st12" width="77.5" height="89"/>
	<text transform="matrix(1 0 0 1 1068.8496 293.6219)" class="st13 st14 st15">102</text>
	<rect x="1143.5" y="263" class="st12" width="77.5" height="89"/>
	<text transform="matrix(1 0 0 1 1163.3379 293.6219)" class="st13 st14 st15">103</text>
	<rect x="198.6" y="152.6" class="st12" width="77.5" height="89"/>
	<text transform="matrix(1 0 0 1 218.456 183.2742)" class="st13 st14 st15">114</text>
	<rect x="293.1" y="152.6" class="st12" width="77.5" height="89"/>
	<text transform="matrix(1 0 0 1 312.9442 183.2742)" class="st13 st14 st15">113</text>
	<rect x="387.6" y="152.6" class="st12" width="77.5" height="89"/>
	<text transform="matrix(1 0 0 1 407.4323 183.2742)" class="st13 st14 st15">112</text>
	<rect x="482.1" y="152.6" class="st12" width="77.5" height="89"/>
	<text transform="matrix(1 0 0 1 501.9205 183.2742)" class="st13 st14 st15">111</text>
	<rect x="576.6" y="152.6" class="st12" width="77.5" height="89"/>
	<text transform="matrix(1 0 0 1 596.4088 183.2742)" class="st13 st14 st15">110</text>
	<rect x="671.1" y="152.6" class="st12" width="77.5" height="89"/>
	<text transform="matrix(1 0 0 1 690.8969 183.2742)" class="st13 st14 st15">109</text>
	<rect x="765.5" y="152.6" class="st12" width="77.5" height="89"/>
	<text transform="matrix(1 0 0 1 785.3851 183.2742)" class="st13 st14 st15">108</text>
	<rect x="860" y="152.6" class="st12" width="77.5" height="89"/>
	<text transform="matrix(1 0 0 1 879.8733 183.2742)" class="st13 st14 st15">107</text>
	<rect x="954.5" y="152.6" class="st12" width="77.5" height="89"/>
	<text transform="matrix(1 0 0 1 974.3615 183.2742)" class="st13 st14 st15">106</text>
	<rect x="1049" y="152.6" class="st12" width="77.5" height="89"/>
	<text transform="matrix(1 0 0 1 1068.8496 183.2742)" class="st13 st14 st15">105</text>
	<rect x="1143.5" y="152.6" class="st12" width="77.5" height="89"/>
	<text transform="matrix(1 0 0 1 1163.3379 183.2742)" class="st13 st14 st15">104</text>
</g>
</svg>
